<svg width="244" height="146" viewBox="0 0 244 146" fill="none" xmlns="http://www.w3.org/2000/svg">
<g opacity="0.25" filter="url(#filter0_d_4_6)">
<path d="M102.88 16.9005C49.9267 17.3979 7.38393 44.8412 7.85751 78.1959C8.01934 89.5942 13.2454 100.195 22.1068 109.205L8.66059 134.758L46.9838 126.108C63.1101 133.533 83.0221 137.891 104.595 137.688C157.549 137.191 200.091 109.747 199.618 76.3949C199.144 43.0402 155.834 16.4032 102.88 16.9005Z" stroke="#C9C7C7" stroke-opacity="0.4" stroke-width="8"/>
</g>
<path d="M31.2759 82C29.615 82 28.3359 81.5991 27.4386 80.7973C26.5605 79.9764 26.1214 78.7545 26.1214 77.1318V66.8227C26.1214 65.2 26.5605 63.9877 27.4386 63.1859C28.3359 62.365 29.615 61.9545 31.2759 61.9545H35.3423V64.1309H30.9895C30.2832 64.1309 29.7105 64.3409 29.2714 64.7609C28.8323 65.1809 28.6127 65.6868 28.6127 66.2786V77.6759C28.6127 78.2677 28.8323 78.7736 29.2714 79.1936C29.7105 79.6136 30.2832 79.8236 30.9895 79.8236H35.3423V82H31.2759ZM50.4061 82C50.1579 82 49.8811 81.9236 49.5757 81.7709C49.2893 81.6182 49.0411 81.4082 48.8311 81.1409C48.392 81.7136 47.8098 82 47.0843 82H44.5357C43.0848 82 42.0252 81.7136 41.357 81.1409C40.7079 80.5491 40.3834 79.5468 40.3834 78.1341V77.5614C40.3834 74.6023 41.777 73.1227 44.5643 73.1227H48.1152V71.6909C48.1152 71.0991 47.9338 70.6409 47.5711 70.3164C47.2084 69.9918 46.6738 69.8295 45.9675 69.8295H41.5288V67.6818H45.6811C47.342 67.6818 48.5638 68.0445 49.3466 68.77C50.1484 69.4955 50.5493 70.66 50.5493 72.2636V79.1364C50.5493 79.4227 50.6543 79.6423 50.8643 79.795C51.0934 79.9286 51.4657 79.9955 51.9811 79.9955V82H50.4061ZM46.7979 79.8523C47.3707 79.8523 47.7334 79.7186 47.8861 79.4514C48.0388 79.1841 48.1152 78.8405 48.1152 78.4205V75.2705H44.5357C44.0393 75.2705 43.6288 75.4327 43.3043 75.7573C42.9798 76.0818 42.8175 76.4923 42.8175 76.9886V78.4205C42.8175 78.9168 42.932 79.2795 43.1611 79.5086C43.3902 79.7377 43.7529 79.8523 44.2493 79.8523H46.7979ZM58.7118 67.6818V68.3691C59.3036 67.9109 60.0672 67.6818 61.0027 67.6818H62.32C63.8663 67.6818 65.0118 68.0445 65.7563 68.77C66.52 69.4955 66.9018 70.66 66.9018 72.2636V82H64.4677V71.6909C64.4677 71.1182 64.2959 70.6695 63.9522 70.345C63.6277 70.0014 63.1791 69.8295 62.6063 69.8295H60.7163C60.0863 69.8295 59.6186 70.0014 59.3131 70.345C59.0077 70.6695 58.855 71.0227 58.855 71.4045V82H56.4209V67.6818H58.7118ZM91.3308 79.9095V64.045H88.7536V61.9545H96.3995V64.045H93.8222V79.9095H96.3995V82H88.7536V79.9095H91.3308ZM120.571 72.7791V82H118.079V61.9545H120.571V70.66H126.47V61.9545H128.961V82H126.47V72.7791H120.571ZM138.813 82C137.133 82 135.902 81.6468 135.119 80.9405C134.336 80.215 133.945 79.0409 133.945 77.4182V72.2636C133.945 70.6218 134.298 69.4477 135.005 68.7414C135.711 68.035 136.885 67.6818 138.527 67.6818H139.873C141.228 67.6818 142.25 68.0636 142.937 68.8273C143.643 69.5718 143.996 70.6695 143.996 72.1205V75.8432H136.379V77.9909C136.379 78.5827 136.561 79.0409 136.923 79.3655C137.286 79.69 137.821 79.8523 138.527 79.8523H143.08V82H138.813ZM141.62 71.5477C141.62 71.0514 141.457 70.6409 141.133 70.3164C140.808 69.9918 140.398 69.8295 139.901 69.8295H138.241C137.553 69.8295 137.066 69.9918 136.78 70.3164C136.513 70.6218 136.379 71.08 136.379 71.6909V73.6955H141.62V71.5477ZM155.366 82C154.717 82 154.144 81.7709 153.648 81.3127C153.171 80.8545 152.932 80.1291 152.932 79.1364V64.1023H148.723V61.9545H155.366V78.9932C155.366 79.2986 155.443 79.5182 155.595 79.6518C155.748 79.7855 156.006 79.8523 156.368 79.8523H160.177V82H155.366ZM166.965 67.6818V68.3691C167.557 67.9109 168.321 67.6818 169.256 67.6818H170.287C171.967 67.6818 173.198 68.0445 173.981 68.77C174.764 69.4764 175.155 70.6409 175.155 72.2636V77.4182C175.155 79.0218 174.754 80.1864 173.952 80.9118C173.17 81.6373 171.948 82 170.287 82H167.108V86.8682H164.674V67.6818H166.965ZM168.97 69.8295C168.34 69.8295 167.872 70.0014 167.566 70.345C167.261 70.6695 167.108 71.0227 167.108 71.4045V79.8523H170.573C171.28 79.8523 171.814 79.69 172.177 79.3655C172.54 79.0409 172.721 78.5827 172.721 77.9909V71.6909C172.721 71.0991 172.54 70.6409 172.177 70.3164C171.814 69.9918 171.28 69.8295 170.573 69.8295H168.97ZM189.36 67.1664C189.36 67.9682 189.322 68.5695 189.245 68.9705C189.169 69.3523 188.997 69.7436 188.73 70.1445C188.463 70.5264 187.995 71.0609 187.327 71.7482L185.809 73.2945V76.0436H183.375V72.5786L185.036 70.8318C185.647 70.1827 186.076 69.6959 186.324 69.3714C186.573 69.0468 186.735 68.7605 186.811 68.5123C186.888 68.245 186.926 67.8823 186.926 67.4241V65.9923C186.926 65.4005 186.754 64.9423 186.41 64.6177C186.067 64.2932 185.542 64.1309 184.835 64.1309H181.256V61.9545H184.549C187.756 61.9545 189.36 63.3864 189.36 66.25V67.1664ZM186.038 79.1364V82H183.174V79.1364H186.038Z" fill="url(#paint0_linear_4_6)"/>
<defs>
<filter id="filter0_d_4_6" x="0.0827789" y="0.893677" width="218.539" height="144.801" filterUnits="userSpaceOnUse" color-interpolation-filters="sRGB">
<feFlood flood-opacity="0" result="BackgroundImageFix"/>
<feColorMatrix in="SourceAlpha" type="matrix" values="0 0 0 0 0 0 0 0 0 0 0 0 0 0 0 0 0 0 127 0" result="hardAlpha"/>
<feOffset dx="7" dy="-4"/>
<feGaussianBlur stdDeviation="4"/>
<feComposite in2="hardAlpha" operator="out"/>
<feColorMatrix type="matrix" values="0 0 0 0 0.491667 0 0 0 0 0.476507 0 0 0 0 0.476507 0 0 0 0.6 0"/>
<feBlend mode="normal" in2="BackgroundImageFix" result="effect1_dropShadow_4_6"/>
<feBlend mode="normal" in="SourceGraphic" in2="effect1_dropShadow_4_6" result="shape"/>
</filter>
<linearGradient id="paint0_linear_4_6" x1="108" y1="87" x2="108" y2="62" gradientUnits="userSpaceOnUse">
<stop stop-color="#70FF00"/>
<stop offset="1" stop-color="#00FFF0"/>
</linearGradient>
</defs>
</svg>
