<svg width="220" height="152" viewBox="0 0 220 152" fill="none" xmlns="http://www.w3.org/2000/svg">
<g opacity="0.25" filter="url(#filter0_d_2_37)">
<path d="M103.048 17.9302C50.5541 18.4439 8.38059 46.7919 8.85006 81.2461C9.01049 93.0201 14.1912 103.97 22.9757 113.277L9.64618 139.673L47.6368 130.737C63.6231 138.408 83.3623 142.909 104.748 142.7C157.242 142.186 199.416 113.838 198.946 79.3857C198.477 44.9315 155.542 17.4165 103.048 17.9302Z" stroke="#868686" stroke-opacity="0.4" stroke-width="8.65526" shape-rendering="crispEdges"/>
</g>
<path d="M26.5117 88C24.8035 88 23.488 87.5877 22.5651 86.763C21.6619 85.9187 21.2103 84.6621 21.2103 82.9931V72.3903C21.2103 70.7213 21.6619 69.4745 22.5651 68.6498C23.488 67.8055 24.8035 67.3834 26.5117 67.3834H30.694V69.6217H26.2172C25.4907 69.6217 24.9017 69.8377 24.4501 70.2697C23.9985 70.7017 23.7727 71.222 23.7727 71.8307V83.5527C23.7727 84.1614 23.9985 84.6817 24.4501 85.1137C24.9017 85.5456 25.4907 85.7616 26.2172 85.7616H30.694V88H26.5117ZM46.187 88C45.9318 88 45.6471 87.9215 45.3329 87.7644C45.0384 87.6073 44.7831 87.3913 44.5672 87.1164C44.1156 87.7055 43.5167 88 42.7706 88H40.1493C38.6571 88 37.5673 87.7055 36.8801 87.1164C36.2125 86.5077 35.8787 85.4769 35.8787 84.0239V83.4349C35.8787 80.3915 37.3121 78.8698 40.1788 78.8698H43.8309V77.3972C43.8309 76.7885 43.6443 76.3172 43.2713 75.9834C42.8982 75.6497 42.3484 75.4828 41.6219 75.4828H37.0568V73.2738H41.3274C43.0356 73.2738 44.2923 73.6469 45.0973 74.393C45.922 75.1391 46.3343 76.3369 46.3343 77.9862V85.0548C46.3343 85.3493 46.4423 85.5751 46.6583 85.7322C46.8939 85.8696 47.2768 85.9383 47.8069 85.9383V88H46.187ZM42.476 85.7911C43.0651 85.7911 43.4382 85.6536 43.5952 85.3787C43.7523 85.1039 43.8309 84.7504 43.8309 84.3185V81.0787H40.1493C39.6388 81.0787 39.2167 81.2456 38.8829 81.5794C38.5491 81.9132 38.3822 82.3353 38.3822 82.8458V84.3185C38.3822 84.829 38.5 85.202 38.7356 85.4376C38.9712 85.6733 39.3443 85.7911 39.8548 85.7911H42.476ZM54.7294 73.2738V73.9807C55.338 73.5094 56.1234 73.2738 57.0856 73.2738H58.4404C60.0308 73.2738 61.2089 73.6469 61.9746 74.393C62.76 75.1391 63.1527 76.3369 63.1527 77.9862V88H60.6493V77.3972C60.6493 76.8081 60.4726 76.3467 60.1191 76.0129C59.7854 75.6595 59.3239 75.4828 58.7349 75.4828H56.791C56.1431 75.4828 55.662 75.6595 55.3479 76.0129C55.0337 76.3467 54.8766 76.7099 54.8766 77.1026V88H52.3732V73.2738H54.7294ZM88.2779 85.85V69.5334H85.6272V67.3834H93.4909V69.5334H90.8402V85.85H93.4909V88H85.6272V85.85H88.2779ZM118.351 78.5163V88H115.789V67.3834H118.351V76.3369H124.418V67.3834H126.981V88H124.418V78.5163H118.351ZM137.113 88C135.385 88 134.119 87.6368 133.314 86.9103C132.509 86.1641 132.106 84.9566 132.106 83.2876V77.9862C132.106 76.2976 132.47 75.0901 133.196 74.3636C133.923 73.6371 135.13 73.2738 136.819 73.2738H138.203C139.597 73.2738 140.648 73.6665 141.354 74.4519C142.081 75.2177 142.444 76.3467 142.444 77.8389V81.6677H134.61V83.8767C134.61 84.4854 134.796 84.9566 135.169 85.2904C135.543 85.6242 136.092 85.7911 136.819 85.7911H141.502V88H137.113ZM140 77.2499C140 76.7394 139.833 76.3172 139.499 75.9834C139.165 75.6497 138.743 75.4828 138.233 75.4828H136.524C135.817 75.4828 135.317 75.6497 135.022 75.9834C134.747 76.2976 134.61 76.7688 134.61 77.3972V79.4588H140V77.2499ZM154.138 88C153.47 88 152.881 87.7644 152.371 87.2931C151.88 86.8219 151.634 86.0758 151.634 85.0548V69.5923H147.305V67.3834H154.138V84.9075C154.138 85.2217 154.216 85.4475 154.374 85.5849C154.531 85.7224 154.796 85.7911 155.169 85.7911H159.086V88H154.138ZM166.067 73.2738V73.9807C166.676 73.5094 167.461 73.2738 168.423 73.2738H169.484C171.212 73.2738 172.478 73.6469 173.283 74.393C174.088 75.1195 174.491 76.3172 174.491 77.9862V83.2876C174.491 84.937 174.078 86.1347 173.254 86.8808C172.449 87.6269 171.192 88 169.484 88H166.215V93.0069H163.711V73.2738H166.067ZM168.129 75.4828C167.481 75.4828 167 75.6595 166.686 76.0129C166.372 76.3467 166.215 76.7099 166.215 77.1026V85.7911H169.778C170.505 85.7911 171.055 85.6242 171.428 85.2904C171.801 84.9566 171.987 84.4854 171.987 83.8767V77.3972C171.987 76.7885 171.801 76.3172 171.428 75.9834C171.055 75.6497 170.505 75.4828 169.778 75.4828H168.129ZM189.1 72.7437C189.1 73.5684 189.061 74.1869 188.982 74.5992C188.904 74.9919 188.727 75.3944 188.452 75.8067C188.177 76.1994 187.696 76.7492 187.009 77.4561L185.448 79.0465V81.8739H182.945V78.3102L184.653 76.5136C185.281 75.846 185.723 75.3453 185.978 75.0115C186.233 74.6777 186.4 74.3832 186.479 74.1279C186.557 73.8531 186.597 73.48 186.597 73.0088V71.5361C186.597 70.9275 186.42 70.4562 186.067 70.1224C185.713 69.7886 185.173 69.6217 184.447 69.6217H180.765V67.3834H184.152C187.451 67.3834 189.1 68.856 189.1 71.8012V72.7437ZM185.684 85.0548V88H182.738V85.0548H185.684Z" fill="url(#paint0_linear_2_37)"/>
<defs>
<filter id="filter0_d_2_37" x="0.504243" y="0.612787" width="219.002" height="150.749" filterUnits="userSpaceOnUse" color-interpolation-filters="sRGB">
<feFlood flood-opacity="0" result="BackgroundImageFix"/>
<feColorMatrix in="SourceAlpha" type="matrix" values="0 0 0 0 0 0 0 0 0 0 0 0 0 0 0 0 0 0 127 0" result="hardAlpha"/>
<feOffset dx="7.57336" dy="-4.32763"/>
<feGaussianBlur stdDeviation="4.32763"/>
<feComposite in2="hardAlpha" operator="out"/>
<feColorMatrix type="matrix" values="0 0 0 0 0.491667 0 0 0 0 0.476507 0 0 0 0 0.476507 0 0 0 0.6 0"/>
<feBlend mode="normal" in2="BackgroundImageFix" result="effect1_dropShadow_2_37"/>
<feBlend mode="normal" in="SourceGraphic" in2="effect1_dropShadow_2_37" result="shape"/>
</filter>
<linearGradient id="paint0_linear_2_37" x1="125.438" y1="66.2376" x2="85.0075" y2="118.018" gradientUnits="userSpaceOnUse">
<stop stop-color="#04E000"/>
<stop offset="1" stop-color="#0CC1FA"/>
</linearGradient>
</defs>
</svg>
