<svg xmlns="http://www.w3.org/2000/svg" version="1.1" xmlns:xlink="http://www.w3.org/1999/xlink" xmlns:svgjs="http://svgjs.dev/svgjs" width="1500" height="1500" viewBox="0 0 1500 1500"><g transform="matrix(1,0,0,1,0,0)"><svg viewBox="0 0 280 280" data-background-color="#8abcd7" preserveAspectRatio="xMidYMid meet" height="1500" width="1500" xmlns="http://www.w3.org/2000/svg" xmlns:xlink="http://www.w3.org/1999/xlink"><g id="tight-bounds" transform="matrix(1,0,0,1,0,0)"><svg viewBox="0 0 280 280" height="280" width="280"><g><svg viewBox="0 0 280 280" height="280" width="280"><g><svg viewBox="0 0 280 280" height="280" width="280"><g id="textblocktransform"><svg viewBox="0 0 280 280" height="280" width="280" id="textblock"><g><svg viewBox="0 0 280 280" height="280" width="280"><g transform="matrix(1,0,0,1,90.50252531694167,91.67963529751381)"><svg viewBox="0 0 98.99494936611666 96.64072940497239" height="96.64072940497239" width="98.99494936611666"><g id="icon-0"><svg xmlns="http://www.w3.org/2000/svg" xmlns:xlink="http://www.w3.org/1999/xlink" version="1.1" x="0" y="0" viewBox="8 8.899999999999999 84.1 82.1" style="enable-background:new 0 0 100 100;" xml:space="preserve" height="96.64072940497239" width="98.99494936611666" class="icon-xg-0" data-fill-palette-color="accent" id="xg-0"><g fill="#ffffff" data-fill-palette-color="accent"><path d="M81 9c-6.1 0-11 4.9-11 11 0 1.2 0.2 2.4 0.6 3.6L54.3 39.9C53 39.3 51.5 39 50 39c-6.1 0-11 4.9-11 11s4.9 11 11 11 11-4.9 11-11c0-2.4-0.8-4.5-2-6.3l15.1-15.1C76 30.1 78.4 31 81 31c6.1 0 11-4.9 11-11S87.1 9 81 9zM50 55c-2.8 0-5-2.2-5-5s2.2-5 5-5 5 2.2 5 5S52.8 55 50 55zM81 25c-2.8 0-5-2.2-5-5s2.2-5 5-5 5 2.2 5 5S83.8 25 81 25z" fill="#ffffff" data-fill-palette-color="accent"></path><path d="M50 31c6.1 0 11-4.9 11-11S56.1 9 50 9s-11 4.9-11 11S43.9 31 50 31zM50 15c2.8 0 5 2.2 5 5s-2.2 5-5 5-5-2.2-5-5S47.2 15 50 15z" fill="#ffffff" data-fill-palette-color="accent"></path><path d="M81 39c-6.1 0-11 4.9-11 11s4.9 11 11 11 11-4.9 11-11S87.1 39 81 39zM81 55c-2.8 0-5-2.2-5-5s2.2-5 5-5 5 2.2 5 5S83.8 55 81 55z" fill="#ffffff" data-fill-palette-color="accent"></path><path d="M19 91c6.1 0 11-4.9 11-11s-4.9-11-11-11S8 73.9 8 80 12.9 91 19 91zM19 75c2.8 0 5 2.2 5 5s-2.2 5-5 5-5-2.2-5-5S16.2 75 19 75z" fill="#ffffff" data-fill-palette-color="accent"></path><path d="M81 69c-5 0-9.3 3.4-10.6 8h-9.9c-1.3-4.6-5.5-8-10.6-8-3 0-5.8 1.2-7.8 3.2l-15-15C29 55.3 30 52.8 30 50c0-5-3.4-9.3-8-10.6v-8.9c4.6-1.3 8-5.5 8-10.6 0-6.1-4.9-11-11-11S8 13.9 8 20c0 5 3.4 9.3 8 10.6v8.9C11.4 40.7 8 45 8 50c0 6.1 4.9 11 11 11 1.1 0 2.1-0.2 3.1-0.4l17.2 17.2C39.1 78.5 39 79.2 39 80c0 6.1 4.9 11 11 11 5 0 9.3-3.4 10.6-8h9.9c1.3 4.6 5.5 8 10.6 8 6.1 0 11-4.9 11-11S87.1 69 81 69zM14 20c0-2.8 2.2-5 5-5s5 2.2 5 5-2.2 5-5 5S14 22.8 14 20zM14 50c0-2.8 2.2-5 5-5s5 2.2 5 5-2.2 5-5 5S14 52.8 14 50zM50 85c-2.8 0-5-2.2-5-5s2.2-5 5-5 5 2.2 5 5S52.8 85 50 85zM81 85c-2.8 0-5-2.2-5-5s2.2-5 5-5 5 2.2 5 5S83.8 85 81 85z" fill="#ffffff" data-fill-palette-color="accent"></path></g></svg></g></svg></g><g id="text-0"><path d="M6.754 102.438l0.04-1.908 11.102 3.307c0.541 0.161 0.99 0.126 1.347-0.105 0.357-0.232 0.607-0.589 0.75-1.071v0c0.126-0.423 0.162-0.811 0.11-1.164-0.053-0.354-0.167-0.693-0.344-1.019v0l1.659-0.174c0.21 0.429 0.335 0.901 0.376 1.416 0.034 0.513-0.039 1.074-0.22 1.681v0c-0.165 0.555-0.419 1.043-0.761 1.467-0.344 0.43-0.772 0.722-1.286 0.878-0.52 0.154-1.137 0.136-1.849-0.054v0zM8.743 105.424l2.375-7.973 1.525 0.455-2.374 7.973z" fill="#ffffff" data-fill-palette-color="primary"></path><path d="M25.471 92.889v0c-0.407 1.01-0.99 1.822-1.75 2.437-0.758 0.608-1.641 0.966-2.649 1.072-1.008 0.106-2.088-0.072-3.238-0.536v0c-1.15-0.463-2.052-1.083-2.705-1.859-0.653-0.776-1.046-1.636-1.178-2.58-0.132-0.944-0.001-1.906 0.393-2.883v0c0.402-0.997 0.958-1.761 1.67-2.291 0.705-0.533 1.5-0.837 2.383-0.911 0.878-0.077 1.774 0.068 2.688 0.436v0c0.243 0.098 0.461 0.193 0.653 0.286 0.19 0.099 0.357 0.192 0.501 0.279v0l-3.468 8.608-1.515-0.61 3.167-7.86-0.179 0.942c-1.022-0.412-1.925-0.449-2.707-0.111-0.776 0.341-1.347 0.965-1.713 1.873v0c-0.281 0.697-0.363 1.362-0.247 1.995 0.116 0.634 0.419 1.209 0.909 1.725 0.494 0.526 1.166 0.96 2.016 1.303v0c0.837 0.337 1.62 0.486 2.35 0.445 0.727-0.034 1.355-0.249 1.886-0.644 0.528-0.389 0.938-0.944 1.228-1.666v0c0.314-0.78 0.42-1.476 0.318-2.089-0.102-0.613-0.35-1.17-0.742-1.67v0l1.33-1.035c0.375 0.47 0.658 0.985 0.848 1.545 0.182 0.563 0.255 1.165 0.22 1.805-0.035 0.64-0.191 1.304-0.469 1.994z" fill="#ffffff" data-fill-palette-color="primary"></path><path d="M21.102 74.583v0c0.38-0.703 0.824-1.262 1.33-1.677 0.497-0.412 1.055-0.706 1.675-0.88 0.616-0.168 1.265-0.224 1.947-0.169v0l-0.103 1.93c-0.763-0.139-1.435-0.083-2.017 0.166-0.579 0.259-1.056 0.737-1.434 1.434v0c-0.367 0.679-0.53 1.342-0.489 1.991 0.041 0.649 0.277 1.254 0.709 1.816 0.438 0.566 1.06 1.067 1.866 1.503v0c0.794 0.429 1.55 0.674 2.27 0.735 0.719 0.06 1.362-0.07 1.927-0.392 0.565-0.321 1.031-0.821 1.398-1.499v0c0.282-0.521 0.446-1.02 0.492-1.496 0.043-0.47-0.023-0.913-0.198-1.329-0.175-0.416-0.457-0.792-0.846-1.128v0l1.324-1.21c0.503 0.562 0.867 1.162 1.093 1.802 0.226 0.639 0.306 1.301 0.242 1.986-0.065 0.685-0.291 1.386-0.678 2.101v0c-0.511 0.945-1.176 1.675-1.994 2.188-0.818 0.513-1.734 0.766-2.748 0.757-1.014-0.008-2.066-0.307-3.157-0.897v0c-1.091-0.59-1.917-1.307-2.479-2.151-0.562-0.844-0.852-1.749-0.87-2.715-0.018-0.965 0.228-1.921 0.74-2.866z" fill="#ffffff" data-fill-palette-color="primary"></path><path d="M37.099 70.938l-1.046 1.513-13.797-9.537 1.046-1.513 5.764 3.984c-0.343-0.715-0.455-1.432-0.334-2.153 0.127-0.716 0.411-1.395 0.854-2.035v0c0.47-0.68 1.027-1.208 1.673-1.583 0.639-0.379 1.34-0.552 2.104-0.518 0.758 0.03 1.545 0.327 2.361 0.891v0l6.053 4.184-1.046 1.513-5.517-3.813c-1.048-0.725-1.931-1.004-2.649-0.839-0.718 0.166-1.304 0.577-1.758 1.235v0c-0.313 0.453-0.522 0.979-0.626 1.577-0.098 0.602-0.005 1.219 0.279 1.851 0.278 0.628 0.822 1.222 1.632 1.782v0z" fill="#ffffff" data-fill-palette-color="primary"></path><path d="M39.482 49.078v0c0.726-0.811 1.544-1.369 2.453-1.673 0.91-0.304 1.857-0.335 2.842-0.093 0.984 0.243 1.939 0.778 2.863 1.605v0c0.924 0.827 1.562 1.716 1.912 2.667 0.351 0.951 0.425 1.896 0.224 2.834-0.201 0.938-0.665 1.813-1.391 2.625v0c-0.717 0.801-1.532 1.356-2.447 1.666-0.915 0.31-1.864 0.343-2.848 0.1-0.984-0.243-1.939-0.778-2.863-1.605v0c-0.924-0.827-1.562-1.716-1.913-2.667-0.351-0.951-0.423-1.899-0.216-2.842 0.206-0.943 0.667-1.816 1.384-2.617zM40.66 50.132v0c-0.519 0.58-0.829 1.195-0.929 1.845-0.106 0.645-0.018 1.296 0.262 1.954 0.29 0.657 0.777 1.291 1.46 1.902v0c0.673 0.602 1.354 1.013 2.045 1.233 0.695 0.215 1.357 0.234 1.986 0.058 0.629-0.177 1.204-0.555 1.723-1.135v0c0.519-0.58 0.834-1.195 0.944-1.846 0.106-0.645 0.011-1.298-0.285-1.96-0.295-0.662-0.779-1.293-1.452-1.895v0c-0.683-0.611-1.367-1.024-2.053-1.24-0.68-0.211-1.335-0.228-1.964-0.052-0.639 0.177-1.218 0.556-1.737 1.136z" fill="#ffffff" data-fill-palette-color="primary"></path><path d="M56.513 48.607l-1.374 1.223-7.641-8.583 1.196-1.066 1.835 1.813-0.389 0.014c-0.222-0.623-0.305-1.213-0.248-1.772 0.061-0.553 0.238-1.074 0.53-1.564 0.297-0.485 0.661-0.92 1.093-1.306v0c0.618-0.55 1.284-0.931 1.999-1.143 0.71-0.217 1.433-0.219 2.167-0.005 0.73 0.208 1.424 0.683 2.084 1.424v0l4.892 5.496-1.374 1.223-4.459-5.01c-0.847-0.952-1.639-1.432-2.376-1.441-0.736-0.009-1.403 0.253-2 0.784v0c-0.412 0.366-0.739 0.828-0.981 1.385-0.238 0.562-0.296 1.181-0.174 1.857 0.117 0.67 0.503 1.374 1.159 2.109v0z" fill="#ffffff" data-fill-palette-color="primary"></path><path d="M63.996 27.93v0c0.897-0.617 1.824-0.965 2.78-1.045 0.956-0.081 1.884 0.114 2.783 0.582 0.899 0.469 1.7 1.214 2.402 2.236v0c0.703 1.022 1.112 2.037 1.227 3.044 0.116 1.007-0.035 1.943-0.453 2.807-0.418 0.864-1.075 1.604-1.972 2.221v0c-0.886 0.609-1.809 0.955-2.771 1.04-0.962 0.084-1.892-0.108-2.792-0.577-0.899-0.469-1.7-1.214-2.402-2.236v0c-0.703-1.022-1.112-2.037-1.227-3.044-0.116-1.007 0.038-1.945 0.461-2.812 0.423-0.868 1.078-1.606 1.964-2.216zM64.891 29.233v0c-0.642 0.441-1.088 0.965-1.339 1.573-0.255 0.602-0.324 1.255-0.207 1.961 0.127 0.707 0.45 1.438 0.969 2.193v0c0.511 0.744 1.076 1.304 1.695 1.682 0.624 0.373 1.263 0.549 1.916 0.525 0.653-0.023 1.301-0.255 1.943-0.695v0c0.642-0.441 1.093-0.964 1.353-1.57 0.255-0.602 0.317-1.259 0.187-1.972-0.131-0.713-0.451-1.441-0.963-2.185v0c-0.519-0.755-1.086-1.318-1.701-1.69-0.611-0.366-1.243-0.537-1.896-0.515-0.663 0.021-1.315 0.252-1.957 0.693z" fill="#ffffff" data-fill-palette-color="primary"></path><path d="M70.854 17.669l1.606-0.897 6.758 12.099c0.282 0.505 0.57 0.802 0.864 0.89 0.297 0.094 0.653 0.026 1.068-0.206v0c0.265-0.148 0.472-0.291 0.624-0.431 0.151-0.14 0.344-0.346 0.577-0.618v0l0.525 1.553c-0.157 0.214-0.353 0.414-0.588 0.601-0.226 0.189-0.471 0.358-0.735 0.505v0c-0.818 0.457-1.548 0.577-2.191 0.36-0.64-0.227-1.213-0.794-1.72-1.703v0z" fill="#ffffff" data-fill-palette-color="primary"></path><path d="M85.833 15.971v0c0.994-0.443 1.969-0.617 2.924-0.523 0.955 0.095 1.832 0.454 2.631 1.079 0.799 0.624 1.451 1.503 1.956 2.636v0c0.505 1.133 0.723 2.205 0.653 3.216-0.07 1.012-0.388 1.904-0.956 2.678-0.568 0.774-1.349 1.382-2.343 1.825v0c-0.982 0.438-1.953 0.61-2.915 0.519-0.961-0.092-1.841-0.45-2.64-1.075-0.799-0.624-1.451-1.503-1.956-2.636v0c-0.505-1.133-0.723-2.205-0.653-3.216 0.07-1.012 0.391-1.906 0.966-2.682 0.574-0.776 1.352-1.383 2.333-1.821zM86.477 17.415v0c-0.711 0.317-1.245 0.751-1.603 1.303-0.36 0.545-0.547 1.175-0.56 1.89-0.004 0.718 0.18 1.496 0.554 2.333v0c0.367 0.824 0.821 1.478 1.361 1.962 0.546 0.481 1.142 0.769 1.789 0.866 0.646 0.097 1.325-0.014 2.036-0.331v0c0.711-0.317 1.25-0.75 1.616-1.298 0.36-0.545 0.541-1.18 0.543-1.905 0.001-0.725-0.182-1.499-0.55-2.323v0c-0.373-0.837-0.828-1.494-1.365-1.971-0.534-0.471-1.125-0.755-1.771-0.851-0.656-0.1-1.339 0.009-2.05 0.325z" fill="#ffffff" data-fill-palette-color="primary"></path><path d="M105 7.231v0l0.878 1.437c-0.013 0.004-0.036 0.011-0.069 0.021-0.026 0.008-0.056 0.017-0.089 0.028v0c-0.717 0.222-1.226 0.535-1.527 0.938-0.294 0.401-0.343 0.918-0.147 1.55v0l-1.247-0.219c-0.175-0.566-0.198-1.104-0.068-1.613 0.133-0.503 0.39-0.94 0.773-1.311 0.385-0.364 0.847-0.63 1.387-0.798v0c0.013-0.004 0.03-0.009 0.049-0.015 0.026-0.008 0.046-0.014 0.06-0.018zM102.047 20.848l3.208-0.995c1.04-0.322 1.926-0.337 2.658-0.045 0.733 0.292 1.221 0.833 1.466 1.623v0c0.222 0.717 0.175 1.414-0.142 2.089-0.311 0.673-0.819 1.278-1.526 1.815-0.709 0.53-1.56 0.949-2.553 1.256v0c-1.731 0.536-3.115 0.644-4.152 0.324-1.037-0.321-1.682-0.889-1.935-1.705v0c-0.182-0.586-0.15-1.169 0.096-1.75 0.245-0.581 0.82-1.044 1.723-1.388v0l-0.057 0.374c-0.534 0.021-1.022-0.073-1.462-0.282-0.447-0.208-0.763-0.611-0.948-1.21v0c-0.186-0.599-0.121-1.181 0.194-1.748 0.313-0.573 0.891-1.048 1.733-1.424v0l1.348 0.231-0.217 0.067c-0.693 0.301-1.147 0.64-1.362 1.017-0.208 0.375-0.261 0.73-0.156 1.066v0c0.128 0.415 0.371 0.675 0.729 0.78 0.364 0.104 0.816 0.072 1.355-0.095zM104.672 25.13v0c0.849-0.263 1.522-0.569 2.02-0.919 0.493-0.34 0.828-0.693 1.003-1.057 0.178-0.358 0.216-0.698 0.117-1.021v0c-0.122-0.395-0.377-0.658-0.765-0.79-0.383-0.141-0.985-0.084-1.808 0.17v0l-3.376 1.047c-0.474 0.147-0.831 0.391-1.071 0.732-0.249 0.337-0.307 0.719-0.175 1.147v0c0.167 0.54 0.61 0.875 1.329 1.005 0.725 0.129 1.634 0.024 2.726-0.314zM100.048 10.734v0c0.875-0.271 1.704-0.355 2.487-0.251 0.776 0.106 1.44 0.376 1.993 0.811 0.555 0.441 0.946 1.027 1.172 1.757v0c0.222 0.717 0.229 1.415 0.021 2.092-0.206 0.684-0.599 1.289-1.179 1.815-0.586 0.528-1.317 0.928-2.193 1.199v0c-1.448 0.449-2.668 0.445-3.661-0.012-0.993-0.457-1.656-1.225-1.99-2.304v0c-0.226-0.73-0.232-1.436-0.018-2.115 0.217-0.673 0.612-1.272 1.186-1.796 0.573-0.524 1.301-0.922 2.182-1.196zM100.492 12.166v0c-0.763 0.237-1.337 0.642-1.722 1.215-0.378 0.572-0.46 1.203-0.246 1.894v0c0.208 0.671 0.632 1.142 1.271 1.413 0.644 0.262 1.347 0.275 2.11 0.038v0c0.757-0.235 1.327-0.642 1.71-1.222 0.381-0.587 0.467-1.216 0.259-1.887v0c-0.214-0.691-0.642-1.164-1.284-1.42-0.642-0.255-1.341-0.266-2.098-0.031z" fill="#ffffff" data-fill-palette-color="primary"></path><path d="M117.513 6.79l1.946-0.383-2.712 14.215c-0.139 0.793-0.336 1.435-0.589 1.927-0.254 0.492-0.569 0.874-0.944 1.144-0.375 0.27-0.836 0.459-1.384 0.568v0c-0.507 0.1-0.987 0.121-1.441 0.062-0.461-0.057-0.88-0.174-1.26-0.353v0l0.188-1.669c0.357 0.211 0.718 0.347 1.081 0.409 0.362 0.055 0.709 0.05 1.039-0.015v0c0.385-0.076 0.73-0.267 1.036-0.573 0.297-0.311 0.515-0.863 0.654-1.655v0l0.3-1.576-1.654-2.466-5.275-7.862 2.049-0.403 4.265 6.797 1.094 1.87 0.373-2.39z" fill="#ffffff" data-fill-palette-color="primary"></path><path d="M134.278 2.758v0c-0.413 0.022-0.753-0.087-1.022-0.328-0.268-0.241-0.413-0.568-0.435-0.981v0c-0.022-0.413 0.087-0.75 0.329-1.011 0.241-0.268 0.568-0.413 0.98-0.435v0c0.413-0.022 0.75 0.087 1.011 0.329 0.268 0.234 0.413 0.557 0.435 0.97v0c0.022 0.413-0.087 0.753-0.328 1.021-0.234 0.268-0.557 0.413-0.97 0.435zM133.477 5.005l1.837-0.098 0.614 11.475-1.836 0.098z" fill="#ffffff" data-fill-palette-color="primary"></path><path d="M143.062 16.466l-1.838-0.061 0.38-11.485 1.601 0.053 0.08 2.577-0.291-0.258c0.268-0.605 0.615-1.089 1.04-1.454 0.425-0.358 0.913-0.614 1.463-0.769 0.549-0.147 1.113-0.211 1.692-0.192v0c0.826 0.027 1.572 0.211 2.236 0.55 0.665 0.332 1.189 0.829 1.574 1.489 0.385 0.654 0.561 1.476 0.528 2.468v0l-0.243 7.354-1.839-0.061 0.222-6.703c0.042-1.274-0.201-2.168-0.728-2.682-0.528-0.514-1.191-0.784-1.989-0.81v0c-0.551-0.018-1.106 0.091-1.666 0.328-0.56 0.243-1.028 0.652-1.405 1.225-0.377 0.567-0.582 1.342-0.615 2.327v0z" fill="#ffffff" data-fill-palette-color="primary"></path><path d="M163.336 1.422v0c0.395 0.058 0.76 0.157 1.095 0.297 0.335 0.14 0.588 0.309 0.761 0.509v0l-0.697 1.401c-0.16-0.142-0.342-0.256-0.545-0.341-0.203-0.086-0.434-0.147-0.694-0.185v0c-0.654-0.096-1.185-0.014-1.592 0.246-0.413 0.253-0.67 0.72-0.771 1.401v0l-0.254 1.728-0.087 0.593-1.585 10.776-1.81-0.266 1.954-13.281c0.073-0.498 0.216-0.947 0.428-1.347 0.212-0.401 0.497-0.731 0.856-0.992 0.351-0.255 0.774-0.433 1.269-0.534 0.494-0.094 1.052-0.096 1.672-0.005zM156.55 5.876l7.893 1.161-0.232 1.575-7.893-1.161z" fill="#ffffff" data-fill-palette-color="primary"></path><path d="M173.52 8.919v0c1.058 0.258 1.935 0.716 2.632 1.376 0.697 0.659 1.171 1.48 1.421 2.463 0.25 0.983 0.228 2.076-0.066 3.281v0c-0.294 1.205-0.777 2.186-1.451 2.944-0.674 0.758-1.472 1.269-2.395 1.533-0.922 0.264-1.912 0.268-2.97 0.01v0c-1.044-0.254-1.918-0.712-2.622-1.373-0.704-0.661-1.181-1.483-1.431-2.465-0.25-0.983-0.228-2.076 0.066-3.282v0c0.294-1.205 0.777-2.186 1.451-2.943 0.674-0.758 1.475-1.268 2.405-1.531 0.929-0.263 1.916-0.267 2.96-0.013zM173.145 10.456v0c-0.756-0.184-1.445-0.168-2.065 0.049-0.619 0.211-1.152 0.595-1.599 1.153-0.443 0.566-0.773 1.294-0.99 2.184v0c-0.214 0.877-0.255 1.672-0.124 2.384 0.138 0.714 0.433 1.307 0.886 1.78 0.452 0.472 1.057 0.8 1.813 0.984v0c0.756 0.184 1.447 0.172 2.072-0.038 0.619-0.211 1.15-0.603 1.595-1.175 0.444-0.572 0.773-1.297 0.987-2.174v0c0.217-0.89 0.259-1.688 0.126-2.394-0.135-0.699-0.428-1.285-0.88-1.757-0.457-0.48-1.064-0.812-1.821-0.996z" fill="#ffffff" data-fill-palette-color="primary"></path><path d="M182.05 23.695l-1.735-0.613 3.829-10.835 1.403 0.496-0.386 1.869c0.535-0.563 1.157-0.906 1.865-1.028 0.702-0.125 1.472-0.039 2.309 0.257v0c0.182 0.064 0.382 0.15 0.6 0.256 0.209 0.111 0.38 0.237 0.513 0.378v0l-0.863 1.482c-0.142-0.116-0.301-0.223-0.478-0.323-0.179-0.093-0.441-0.2-0.785-0.321v0c-0.448-0.158-0.946-0.188-1.492-0.089-0.547 0.099-1.065 0.358-1.557 0.776-0.485 0.421-0.871 1.037-1.157 1.849v0z" fill="#ffffff" data-fill-palette-color="primary"></path><path d="M191.397 27.668l-1.643-0.826 5.162-10.267 1.431 0.72-0.697 1.662c0.688-0.448 1.399-0.665 2.132-0.652 0.743 0.011 1.428 0.174 2.055 0.49v0c0.726 0.365 1.331 0.873 1.813 1.525 0.473 0.654 0.71 1.41 0.711 2.266v0c0.451-0.359 0.95-0.586 1.499-0.681 0.539-0.091 1.083-0.092 1.632-0.001 0.545 0.097 1.03 0.252 1.455 0.466v0c0.652 0.328 1.209 0.778 1.67 1.348 0.458 0.577 0.734 1.248 0.827 2.013 0.091 0.77-0.09 1.605-0.542 2.503v0l-3.305 6.574-1.644-0.826 3.222-6.408c0.467-0.929 0.574-1.716 0.32-2.361-0.264-0.641-0.737-1.134-1.42-1.477v0c-0.535-0.269-1.099-0.391-1.691-0.364-0.598 0.023-1.162 0.218-1.693 0.583-0.54 0.369-0.996 0.922-1.367 1.66v0l-2.827 5.623-1.644-0.826 3.222-6.408c0.467-0.929 0.574-1.716 0.32-2.361-0.264-0.641-0.737-1.134-1.42-1.477v0c-0.455-0.229-0.977-0.341-1.566-0.336-0.592-0.004-1.176 0.176-1.753 0.541-0.574 0.359-1.074 0.963-1.502 1.813v0z" fill="#ffffff" data-fill-palette-color="primary"></path><path d="M217.417 38.063l1.842-2.583c0.5-0.701 0.698-1.376 0.595-2.026-0.102-0.64-0.498-1.206-1.188-1.698v0c-0.645-0.46-1.292-0.71-1.941-0.749-0.649-0.04-1.302 0.176-1.959 0.646v0l-0.685-1.619c0.752-0.521 1.617-0.755 2.594-0.701 0.981 0.048 1.971 0.428 2.969 1.141v0c0.673 0.48 1.202 1.031 1.588 1.653 0.386 0.622 0.567 1.281 0.546 1.976-0.012 0.694-0.281 1.408-0.805 2.142v0l-3.229 4.527c-0.32 0.449-0.245 0.841 0.227 1.177v0c0.241 0.172 0.496 0.307 0.764 0.405v0l-0.916 1.124c-0.344-0.051-0.716-0.219-1.113-0.503v0c-0.359-0.256-0.631-0.556-0.818-0.9-0.196-0.343-0.272-0.71-0.229-1.103 0.037-0.396 0.208-0.808 0.512-1.234v0l0.132-0.185 0.334 0.315c-0.499 0.38-1.039 0.596-1.617 0.648-0.581 0.043-1.147-0.023-1.7-0.197-0.549-0.18-1.039-0.424-1.471-0.732v0c-0.55-0.392-0.997-0.851-1.342-1.376-0.339-0.521-0.513-1.072-0.521-1.653-0.008-0.581 0.187-1.153 0.587-1.714v0c0.5-0.701 1.145-1.113 1.935-1.235 0.79-0.122 1.66 0.033 2.612 0.467v0l4.232 1.914-0.882 1.237-3.45-1.534c-0.703-0.307-1.286-0.456-1.749-0.448-0.457 0.012-0.828 0.218-1.112 0.616v0c-0.276 0.387-0.349 0.809-0.218 1.266 0.132 0.467 0.479 0.9 1.04 1.3v0c0.359 0.256 0.738 0.454 1.137 0.595 0.399 0.141 0.798 0.21 1.198 0.207 0.404-0.008 0.782-0.106 1.136-0.293 0.359-0.184 0.681-0.475 0.965-0.873z" fill="#ffffff" data-fill-palette-color="primary"></path><path d="M230.667 35.899l1.716 0.836-7.654 8.695c-0.373 0.424-0.529 0.847-0.468 1.268 0.061 0.421 0.28 0.797 0.657 1.129v0c0.331 0.291 0.668 0.487 1.012 0.588 0.343 0.1 0.7 0.138 1.069 0.115v0l-0.537 1.579c-0.478 0.011-0.959-0.073-1.444-0.252-0.48-0.184-0.958-0.486-1.434-0.905v0c-0.434-0.382-0.772-0.817-1.013-1.305-0.246-0.492-0.332-1.004-0.259-1.535 0.078-0.537 0.353-1.089 0.824-1.656v0zM227.122 36.455l6.245 5.496-1.052 1.195-6.244-5.497z" fill="#ffffff" data-fill-palette-color="primary"></path><path d="M238.865 44.288v0c-0.292-0.292-0.438-0.619-0.439-0.979 0-0.36 0.146-0.687 0.439-0.98v0c0.292-0.292 0.616-0.436 0.971-0.431 0.36 0 0.687 0.146 0.98 0.439v0c0.292 0.292 0.436 0.616 0.431 0.971 0.005 0.356-0.139 0.68-0.431 0.972v0c-0.292 0.292-0.619 0.438-0.979 0.439-0.356 0.005-0.68-0.139-0.972-0.431zM236.658 45.194l1.301 1.301-8.125 8.126-1.301-1.301z" fill="#ffffff" data-fill-palette-color="primary"></path><path d="M245.379 54.713v0c0.697 0.836 1.129 1.727 1.298 2.672 0.168 0.945 0.061 1.886-0.323 2.825-0.384 0.939-1.052 1.805-2.005 2.598v0c-0.953 0.794-1.925 1.295-2.918 1.503-0.992 0.208-1.938 0.144-2.836-0.192-0.899-0.336-1.697-0.922-2.394-1.758v0c-0.688-0.826-1.118-1.714-1.291-2.664-0.173-0.95-0.067-1.894 0.316-2.833 0.384-0.939 1.052-1.805 2.005-2.598v0c0.953-0.794 1.925-1.295 2.918-1.503 0.992-0.208 1.94-0.141 2.843 0.2 0.903 0.341 1.699 0.925 2.387 1.75zM244.164 55.725v0c-0.498-0.598-1.062-0.994-1.689-1.188-0.623-0.199-1.28-0.207-1.972-0.025-0.692 0.191-1.391 0.58-2.094 1.167v0c-0.693 0.578-1.199 1.192-1.518 1.843-0.314 0.656-0.43 1.309-0.347 1.957 0.083 0.648 0.373 1.272 0.872 1.869v0c0.498 0.598 1.061 0.999 1.688 1.203 0.623 0.199 1.283 0.2 1.981 0.004 0.698-0.196 1.393-0.583 2.087-1.16v0c0.704-0.587 1.213-1.203 1.525-1.85 0.308-0.642 0.42-1.287 0.338-1.935-0.082-0.658-0.372-1.286-0.871-1.885z" fill="#ffffff" data-fill-palette-color="primary"></path><path d="M243.363 71.631l-1.01-1.537 9.605-6.309 0.879 1.338-2.059 1.551 0.042-0.386c0.649-0.129 1.245-0.125 1.789 0.012 0.538 0.141 1.028 0.392 1.471 0.752 0.437 0.364 0.814 0.788 1.132 1.272v0c0.454 0.691 0.734 1.406 0.839 2.144 0.112 0.735 0.008 1.449-0.309 2.145-0.312 0.692-0.883 1.31-1.713 1.854v0l-6.149 4.04-1.01-1.538 5.605-3.682c1.065-0.7 1.656-1.413 1.772-2.141 0.116-0.727-0.046-1.425-0.485-2.092v0c-0.303-0.461-0.712-0.851-1.227-1.172-0.521-0.317-1.125-0.464-1.811-0.443-0.68 0.018-1.432 0.298-2.256 0.839v0z" fill="#ffffff" data-fill-palette-color="primary"></path><path d="M267.537 84.046l4.599 11.528-1.603 0.639-1.96-4.914-12.488 4.982-0.678-1.699 12.488-4.982-1.961-4.914z" fill="#ffffff" data-fill-palette-color="primary"></path><path d="M273.786 100.783l0.547 1.756-14.484 4.511-0.547-1.756z" fill="#ffffff" data-fill-palette-color="primary"></path><path d="M23.058 175.919l1.011 1.618-11.103 3.307c-0.541 0.161-0.898 0.436-1.07 0.826-0.172 0.389-0.186 0.825-0.042 1.306v0c0.126 0.423 0.308 0.767 0.546 1.034 0.238 0.267 0.519 0.489 0.845 0.665v0l-1.293 1.054c-0.411-0.244-0.774-0.571-1.09-0.98-0.309-0.411-0.554-0.92-0.735-1.528v0c-0.165-0.555-0.221-1.102-0.166-1.643 0.053-0.548 0.251-1.027 0.595-1.439 0.351-0.414 0.877-0.736 1.578-0.966v0zM19.759 174.508l2.375 7.973-1.526 0.454-2.374-7.973z" fill="#ffffff" data-fill-palette-color="primary"></path><path d="M14.393 194.787v0c-0.407-1.01-0.549-2-0.428-2.969 0.124-0.964 0.513-1.833 1.166-2.609 0.653-0.776 1.555-1.395 2.705-1.859v0c1.15-0.463 2.23-0.642 3.238-0.535 1.008 0.106 1.887 0.454 2.637 1.043 0.75 0.589 1.322 1.373 1.716 2.35v0c0.402 0.997 0.53 1.933 0.385 2.808-0.139 0.873-0.501 1.643-1.086 2.31-0.579 0.664-1.326 1.18-2.24 1.548v0c-0.243 0.098-0.466 0.18-0.669 0.248-0.206 0.061-0.391 0.109-0.554 0.145v0l-3.468-8.608 1.515-0.61 3.166 7.86-0.524-0.803c1.022-0.412 1.698-1.011 2.028-1.797 0.323-0.784 0.302-1.629-0.064-2.537v0c-0.281-0.697-0.682-1.233-1.205-1.609-0.523-0.376-1.14-0.581-1.852-0.613-0.72-0.037-1.505 0.116-2.355 0.459v0c-0.837 0.337-1.504 0.773-2.002 1.308-0.5 0.528-0.804 1.119-0.913 1.771-0.111 0.646-0.021 1.331 0.27 2.053v0c0.314 0.78 0.72 1.355 1.219 1.726 0.499 0.371 1.063 0.601 1.692 0.688v0l-0.241 1.669c-0.596-0.079-1.157-0.254-1.682-0.526-0.521-0.28-0.991-0.663-1.41-1.148-0.418-0.485-0.766-1.073-1.044-1.763z" fill="#ffffff" data-fill-palette-color="primary"></path><path d="M31.612 202.945v0c0.38 0.703 0.605 1.38 0.675 2.031 0.073 0.642 0.013 1.27-0.179 1.883-0.196 0.607-0.504 1.181-0.925 1.723v0l-1.558-1.143c0.534-0.563 0.855-1.156 0.964-1.779 0.1-0.626-0.038-1.287-0.415-1.984v0c-0.367-0.679-0.833-1.178-1.399-1.5-0.565-0.321-1.201-0.455-1.908-0.4-0.713 0.057-1.473 0.303-2.279 0.739v0c-0.794 0.429-1.413 0.929-1.857 1.498-0.444 0.569-0.686 1.178-0.727 1.826-0.041 0.649 0.122 1.312 0.489 1.991v0c0.282 0.521 0.61 0.931 0.983 1.231 0.37 0.293 0.777 0.481 1.221 0.562 0.443 0.081 0.913 0.051 1.407-0.092v0l0.288 1.771c-0.745 0.113-1.447 0.09-2.106-0.071-0.659-0.161-1.257-0.456-1.795-0.885-0.538-0.43-1-1.002-1.387-1.717v0c-0.511-0.945-0.758-1.901-0.74-2.866 0.018-0.965 0.308-1.87 0.87-2.715 0.562-0.844 1.388-1.561 2.479-2.151v0c1.091-0.59 2.143-0.889 3.157-0.897 1.014-0.008 1.93 0.245 2.748 0.757 0.818 0.513 1.483 1.242 1.994 2.188z" fill="#ffffff" data-fill-palette-color="primary"></path><path d="M27.648 218.808l-1.046-1.513 13.797-9.537 1.046 1.513-5.764 3.984c0.79-0.069 1.501 0.081 2.132 0.449 0.625 0.372 1.159 0.878 1.602 1.518v0c0.47 0.68 0.767 1.388 0.89 2.123 0.129 0.732 0.043 1.449-0.259 2.152-0.296 0.699-0.852 1.33-1.668 1.894v0l-6.052 4.184-1.046-1.513 5.517-3.814c1.048-0.725 1.622-1.452 1.72-2.182 0.099-0.73-0.079-1.423-0.534-2.08v0c-0.313-0.453-0.732-0.834-1.254-1.143-0.529-0.304-1.139-0.436-1.83-0.394-0.685 0.038-1.433 0.338-2.244 0.898v0z" fill="#ffffff" data-fill-palette-color="primary"></path><path d="M48.387 226.169v0c0.726 0.811 1.189 1.686 1.391 2.624 0.201 0.938 0.127 1.883-0.224 2.835-0.351 0.951-0.988 1.841-1.912 2.667v0c-0.924 0.827-1.879 1.362-2.863 1.604-0.984 0.243-1.932 0.212-2.842-0.092-0.91-0.304-1.728-0.862-2.454-1.674v0c-0.717-0.801-1.178-1.673-1.384-2.616-0.206-0.943-0.134-1.891 0.217-2.842 0.351-0.951 0.988-1.841 1.912-2.668v0c0.924-0.827 1.879-1.362 2.863-1.604 0.984-0.243 1.934-0.209 2.849 0.1 0.915 0.31 1.73 0.865 2.447 1.666zM47.209 227.223v0c-0.519-0.58-1.096-0.956-1.731-1.128-0.629-0.177-1.286-0.162-1.971 0.044-0.685 0.216-1.369 0.629-2.052 1.239v0c-0.673 0.602-1.157 1.233-1.452 1.896-0.291 0.667-0.383 1.323-0.278 1.967 0.106 0.645 0.418 1.258 0.937 1.838v0c0.519 0.58 1.096 0.961 1.729 1.143 0.629 0.177 1.289 0.155 1.98-0.065 0.69-0.22 1.372-0.631 2.044-1.233v0c0.683-0.611 1.17-1.245 1.46-1.902 0.285-0.653 0.375-1.301 0.27-1.947-0.105-0.655-0.417-1.272-0.936-1.852z" fill="#ffffff" data-fill-palette-color="primary"></path><path d="M48.873 243.188l-1.374-1.223 7.641-8.584 1.197 1.065-1.588 2.032-0.059-0.384c0.593-0.293 1.17-0.444 1.731-0.452 0.556-0.003 1.095 0.112 1.615 0.345 0.516 0.238 0.991 0.55 1.423 0.935v0c0.618 0.55 1.073 1.167 1.367 1.853 0.298 0.68 0.384 1.398 0.257 2.152-0.122 0.749-0.513 1.494-1.173 2.234v0l-4.892 5.496-1.374-1.223 4.459-5.009c0.847-0.952 1.233-1.794 1.156-2.527-0.077-0.732-0.414-1.364-1.01-1.896v0c-0.412-0.366-0.908-0.638-1.49-0.813-0.586-0.171-1.207-0.157-1.864 0.042-0.652 0.194-1.306 0.659-1.961 1.395v0z" fill="#ffffff" data-fill-palette-color="primary"></path><path d="M70.765 245.436v0c0.897 0.617 1.554 1.357 1.972 2.221 0.418 0.864 0.569 1.8 0.453 2.807-0.116 1.007-0.525 2.022-1.228 3.044v0c-0.703 1.022-1.503 1.767-2.402 2.236-0.899 0.469-1.827 0.663-2.783 0.583-0.956-0.081-1.883-0.429-2.78-1.046v0c-0.886-0.609-1.54-1.347-1.963-2.215-0.423-0.868-0.577-1.805-0.462-2.813 0.116-1.007 0.525-2.022 1.227-3.044v0c0.703-1.022 1.503-1.767 2.403-2.236 0.899-0.469 1.83-0.661 2.791-0.577 0.962 0.084 1.886 0.431 2.772 1.04zM69.869 246.739v0c-0.642-0.441-1.291-0.67-1.948-0.687-0.653-0.023-1.288 0.147-1.905 0.509-0.615 0.372-1.182 0.935-1.701 1.69v0c-0.511 0.744-0.832 1.472-0.963 2.185-0.125 0.717-0.06 1.376 0.196 1.978 0.255 0.602 0.703 1.123 1.345 1.564v0c0.642 0.441 1.292 0.675 1.95 0.701 0.653 0.023 1.289-0.155 1.908-0.531 0.619-0.377 1.184-0.938 1.696-1.682v0c0.519-0.755 0.842-1.486 0.968-2.193 0.123-0.701 0.057-1.353-0.198-1.955-0.257-0.611-0.706-1.138-1.348-1.579z" fill="#ffffff" data-fill-palette-color="primary"></path><path d="M81.609 246.288l1.606 0.897-6.758 12.099c-0.282 0.505-0.384 0.906-0.305 1.203 0.076 0.303 0.321 0.57 0.736 0.802v0c0.265 0.148 0.496 0.249 0.694 0.304 0.198 0.055 0.475 0.111 0.83 0.168v0l-1.048 1.261c-0.264-0.021-0.537-0.083-0.82-0.185-0.28-0.093-0.552-0.213-0.816-0.362v0c-0.818-0.457-1.303-1.016-1.454-1.676-0.142-0.663 0.04-1.449 0.547-2.358v0z" fill="#ffffff" data-fill-palette-color="primary"></path><path d="M90.698 256.329v0c0.994 0.443 1.775 1.052 2.344 1.825 0.568 0.774 0.887 1.666 0.956 2.678 0.07 1.012-0.148 2.084-0.654 3.216v0c-0.505 1.133-1.157 2.011-1.955 2.636-0.799 0.624-1.676 0.984-2.631 1.079-0.955 0.095-1.93-0.079-2.924-0.523v0c-0.982-0.438-1.76-1.045-2.333-1.821-0.574-0.776-0.896-1.67-0.966-2.682-0.07-1.012 0.148-2.084 0.653-3.216v0c0.505-1.133 1.157-2.011 1.956-2.636 0.799-0.624 1.679-0.983 2.64-1.075 0.961-0.092 1.933 0.081 2.914 0.519zM90.055 257.773v0c-0.711-0.317-1.391-0.424-2.041-0.321-0.646 0.097-1.24 0.379-1.78 0.847-0.537 0.477-0.992 1.134-1.365 1.971v0c-0.367 0.824-0.551 1.599-0.55 2.323 0.008 0.728 0.192 1.364 0.552 1.909 0.36 0.545 0.896 0.976 1.607 1.294v0c0.711 0.317 1.393 0.429 2.046 0.335 0.646-0.097 1.24-0.386 1.779-0.87 0.54-0.483 0.994-1.137 1.361-1.962v0c0.373-0.837 0.558-1.615 0.554-2.333-0.007-0.712-0.191-1.341-0.551-1.886-0.364-0.554-0.901-0.99-1.612-1.307z" fill="#ffffff" data-fill-palette-color="primary"></path><path d="M109.65 260.976v0l-0.088 1.682c-0.013-0.004-0.036-0.011-0.069-0.021-0.026-0.008-0.056-0.017-0.089-0.028v0c-0.717-0.222-1.314-0.252-1.79-0.089-0.469 0.165-0.802 0.563-0.998 1.194v0l-0.904-0.886c0.175-0.566 0.461-1.022 0.857-1.368 0.394-0.34 0.853-0.554 1.378-0.644 0.523-0.083 1.055-0.041 1.595 0.127v0c0.013 0.004 0.03 0.009 0.049 0.015 0.026 0.008 0.046 0.014 0.059 0.018zM99.514 270.536l3.208 0.995c1.04 0.322 1.779 0.811 2.218 1.466 0.439 0.655 0.536 1.378 0.291 2.168v0c-0.222 0.717-0.655 1.265-1.298 1.642-0.637 0.38-1.398 0.591-2.285 0.633-0.884 0.036-1.823-0.1-2.816-0.407v0c-1.731-0.536-2.933-1.23-3.607-2.081-0.674-0.851-0.884-1.684-0.632-2.5v0c0.182-0.586 0.538-1.049 1.069-1.389 0.531-0.34 1.266-0.397 2.206-0.171v0l-0.259 0.276c-0.453-0.285-0.801-0.638-1.045-1.059-0.251-0.424-0.284-0.935-0.098-1.535v0c0.186-0.599 0.568-1.043 1.148-1.331 0.582-0.296 1.327-0.36 2.235-0.195v0l0.981 0.953-0.217-0.067c-0.742-0.143-1.308-0.12-1.698 0.069-0.384 0.191-0.628 0.455-0.732 0.79v0c-0.128 0.415-0.075 0.766 0.16 1.056 0.242 0.291 0.632 0.52 1.171 0.687zM99.258 275.553v0c0.849 0.263 1.577 0.391 2.185 0.385 0.599-0.002 1.074-0.103 1.425-0.305 0.349-0.195 0.573-0.453 0.673-0.776v0c0.122-0.395 0.061-0.756-0.183-1.084-0.236-0.333-0.765-0.627-1.587-0.882v0l-3.376-1.046c-0.474-0.147-0.906-0.147-1.298-0.002-0.396 0.137-0.66 0.419-0.793 0.847v0c-0.167 0.54 0.008 1.067 0.528 1.581 0.525 0.516 1.334 0.944 2.426 1.282zM103.586 261.066v0c0.875 0.271 1.606 0.671 2.192 1.199 0.58 0.526 0.975 1.124 1.186 1.795 0.208 0.678 0.199 1.382-0.028 2.112v0c-0.222 0.717-0.611 1.296-1.166 1.738-0.557 0.448-1.223 0.724-1.999 0.83-0.782 0.104-1.611 0.02-2.486-0.251v0c-1.448-0.449-2.452-1.142-3.012-2.081-0.56-0.938-0.673-1.947-0.339-3.026v0c0.226-0.73 0.62-1.315 1.182-1.754 0.56-0.432 1.224-0.703 1.993-0.81 0.769-0.108 1.595-0.025 2.477 0.248zM103.142 262.497v0c-0.763-0.237-1.466-0.227-2.108 0.028-0.635 0.258-1.06 0.732-1.274 1.423v0c-0.208 0.671-0.125 1.299 0.25 1.884 0.383 0.58 0.956 0.989 1.719 1.225v0c0.757 0.235 1.457 0.221 2.101-0.041 0.646-0.269 1.073-0.739 1.28-1.41v0c0.214-0.691 0.129-1.323-0.256-1.897-0.385-0.574-0.956-0.978-1.712-1.212z" fill="#ffffff" data-fill-palette-color="primary"></path><path d="M119.731 265.146l1.947 0.383-7.894 12.128c-0.429 0.681-0.854 1.201-1.276 1.56-0.422 0.359-0.857 0.593-1.307 0.702-0.45 0.108-0.948 0.108-1.496 0v0c-0.507-0.1-0.959-0.262-1.357-0.488-0.405-0.227-0.749-0.495-1.032-0.803v0l0.806-1.474c0.251 0.33 0.533 0.593 0.845 0.788 0.314 0.188 0.637 0.315 0.968 0.38v0c0.385 0.076 0.777 0.03 1.175-0.138 0.393-0.176 0.803-0.604 1.232-1.285v0l0.876-1.344-0.597-2.909-1.904-9.274 2.048 0.403 1.373 7.906 0.305 2.145 1.25-2.071z" fill="#ffffff" data-fill-palette-color="primary"></path><path d="M135.128 264.582v0c-0.413-0.022-0.74-0.167-0.981-0.436-0.241-0.268-0.35-0.609-0.328-1.021v0c0.022-0.413 0.167-0.736 0.435-0.97 0.268-0.241 0.609-0.35 1.021-0.329v0c0.413 0.022 0.736 0.167 0.971 0.435 0.241 0.261 0.351 0.598 0.328 1.011v0c-0.022 0.413-0.167 0.74-0.435 0.981-0.261 0.241-0.598 0.351-1.011 0.329zM134.092 266.731l1.837 0.098-0.615 11.475-1.837-0.098z" fill="#ffffff" data-fill-palette-color="primary"></path><path d="M143.442 278.23l-1.838 0.061-0.38-11.485 1.601-0.053 0.25 2.566-0.308-0.238c0.228-0.621 0.542-1.128 0.943-1.52 0.401-0.385 0.87-0.673 1.408-0.863 0.538-0.183 1.097-0.284 1.676-0.304v0c0.826-0.027 1.582 0.106 2.267 0.401 0.685 0.288 1.241 0.748 1.669 1.382 0.427 0.627 0.658 1.436 0.69 2.428v0l0.244 7.353-1.839 0.061-0.221-6.703c-0.042-1.274-0.343-2.15-0.904-2.627-0.56-0.478-1.24-0.703-2.039-0.677v0c-0.551 0.018-1.097 0.164-1.64 0.436-0.542 0.28-0.983 0.718-1.321 1.316-0.339 0.59-0.492 1.378-0.46 2.362v0z" fill="#ffffff" data-fill-palette-color="primary"></path><path d="M160.094 259.745v0c0.395-0.058 0.773-0.068 1.134-0.031 0.361 0.037 0.652 0.127 0.875 0.269v0l-0.264 1.543c-0.194-0.09-0.401-0.146-0.621-0.17-0.219-0.023-0.458-0.016-0.717 0.022v0c-0.654 0.096-1.139 0.328-1.454 0.694-0.323 0.361-0.434 0.882-0.334 1.564v0l0.254 1.728 0.087 0.593 1.585 10.776-1.81 0.266-1.953-13.281c-0.073-0.498-0.066-0.969 0.022-1.413 0.088-0.445 0.266-0.843 0.534-1.197 0.263-0.345 0.617-0.637 1.062-0.877 0.446-0.233 0.98-0.395 1.6-0.486zM154.877 265.965l7.893-1.161 0.232 1.575-7.893 1.161z" fill="#ffffff" data-fill-palette-color="primary"></path><path d="M170.691 262.685v0c1.058-0.258 2.048-0.254 2.97 0.01 0.922 0.264 1.721 0.776 2.394 1.533 0.674 0.758 1.158 1.739 1.452 2.944v0c0.294 1.205 0.315 2.299 0.065 3.281-0.25 0.983-0.723 1.804-1.42 2.463-0.697 0.659-1.575 1.118-2.633 1.375v0c-1.044 0.254-2.031 0.25-2.96-0.012-0.929-0.263-1.731-0.773-2.404-1.531-0.674-0.758-1.158-1.739-1.452-2.944v0c-0.294-1.205-0.315-2.299-0.065-3.281 0.25-0.983 0.727-1.804 1.431-2.465 0.704-0.661 1.578-1.118 2.622-1.373zM171.065 264.221v0c-0.756 0.184-1.36 0.516-1.81 0.994-0.452 0.472-0.749 1.058-0.891 1.76-0.133 0.706-0.091 1.504 0.127 2.394v0c0.214 0.877 0.543 1.602 0.987 2.174 0.451 0.571 0.986 0.962 1.604 1.172 0.619 0.211 1.306 0.224 2.063 0.04v0c0.756-0.184 1.364-0.513 1.823-0.986 0.452-0.472 0.744-1.064 0.875-1.777 0.131-0.713 0.09-1.508-0.123-2.385v0c-0.217-0.89-0.547-1.618-0.99-2.184-0.441-0.559-0.971-0.944-1.59-1.155-0.627-0.216-1.319-0.232-2.075-0.047z" fill="#ffffff" data-fill-palette-color="primary"></path><path d="M185.878 270.351l-1.734 0.613-3.83-10.835 1.404-0.496 0.873 1.697c0.062-0.775 0.331-1.432 0.805-1.972 0.468-0.538 1.12-0.955 1.958-1.251v0c0.182-0.064 0.391-0.124 0.628-0.178 0.232-0.046 0.445-0.055 0.637-0.028v0l0.259 1.695c-0.183-0.001-0.375 0.015-0.575 0.049-0.198 0.041-0.468 0.122-0.812 0.244v0c-0.448 0.158-0.854 0.448-1.217 0.868-0.363 0.421-0.604 0.948-0.723 1.582-0.113 0.632-0.026 1.354 0.261 2.166v0z" fill="#ffffff" data-fill-palette-color="primary"></path><path d="M196.558 265.81l-1.643 0.826-5.163-10.267 1.432-0.719 0.918 1.551c0.051-0.82 0.3-1.52 0.749-2.1 0.452-0.59 0.991-1.042 1.619-1.358v0c0.726-0.365 1.495-0.547 2.305-0.546 0.807 0.011 1.555 0.271 2.243 0.781v0c-0.02-0.576 0.096-1.112 0.348-1.61 0.248-0.487 0.573-0.924 0.972-1.31 0.403-0.38 0.817-0.677 1.241-0.89v0c0.652-0.328 1.345-0.507 2.078-0.536 0.736-0.023 1.439 0.155 2.109 0.536 0.673 0.387 1.235 1.029 1.687 1.928v0l3.305 6.574-1.643 0.826-3.222-6.407c-0.467-0.929-1.035-1.484-1.705-1.665-0.672-0.171-1.35-0.085-2.033 0.259v0c-0.535 0.269-0.969 0.649-1.3 1.14-0.338 0.494-0.518 1.063-0.542 1.706-0.026 0.653 0.146 1.349 0.518 2.088v0l2.827 5.623-1.643 0.826-3.222-6.407c-0.467-0.929-1.035-1.484-1.705-1.665-0.672-0.171-1.35-0.085-2.032 0.259v0c-0.455 0.229-0.857 0.581-1.204 1.056-0.356 0.472-0.56 1.049-0.611 1.73-0.054 0.675 0.133 1.437 0.56 2.287v0z" fill="#ffffff" data-fill-palette-color="primary"></path><path d="M219.156 247.588l-1.842-2.583c-0.5-0.701-1.074-1.108-1.722-1.221-0.638-0.112-1.302 0.078-1.992 0.57v0c-0.645 0.46-1.092 0.99-1.341 1.591-0.249 0.6-0.258 1.288-0.026 2.063v0l-1.754 0.121c-0.248-0.881-0.187-1.775 0.182-2.681 0.365-0.912 1.047-1.724 2.045-2.436v0c0.673-0.48 1.366-0.801 2.08-0.963 0.714-0.162 1.396-0.12 2.045 0.127 0.652 0.237 1.24 0.724 1.764 1.458v0l3.229 4.527c0.32 0.449 0.716 0.505 1.187 0.169v0c0.241-0.172 0.452-0.369 0.632-0.591v0l0.764 1.232c-0.16 0.309-0.44 0.606-0.838 0.889v0c-0.359 0.256-0.731 0.416-1.117 0.48-0.388 0.073-0.76 0.026-1.117-0.142-0.363-0.164-0.696-0.46-1-0.886v0l-0.132-0.185 0.406-0.214c0.197 0.596 0.225 1.176 0.086 1.741-0.149 0.563-0.395 1.077-0.739 1.543-0.349 0.46-0.739 0.844-1.171 1.153v0c-0.55 0.392-1.129 0.666-1.738 0.82-0.603 0.151-1.181 0.136-1.733-0.045-0.552-0.181-1.029-0.552-1.429-1.114v0c-0.5-0.701-0.679-1.445-0.538-2.231 0.141-0.786 0.572-1.559 1.292-2.318v0l3.188-3.378 0.882 1.237-2.574 2.762c-0.519 0.565-0.85 1.068-0.993 1.508-0.137 0.436-0.064 0.854 0.22 1.252v0c0.276 0.387 0.652 0.593 1.126 0.619 0.485 0.027 1.007-0.16 1.568-0.56v0c0.359-0.256 0.67-0.55 0.933-0.882 0.263-0.331 0.458-0.686 0.586-1.065 0.124-0.384 0.154-0.774 0.092-1.17-0.057-0.4-0.227-0.799-0.511-1.197z" fill="#ffffff" data-fill-palette-color="primary"></path><path d="M219.427 234.544l1.047-1.596 7.654 8.696c0.373 0.424 0.772 0.633 1.197 0.625 0.425-0.007 0.826-0.177 1.204-0.509v0c0.331-0.291 0.568-0.601 0.711-0.928 0.143-0.328 0.226-0.676 0.25-1.046v0l1.498 0.733c-0.05 0.475-0.194 0.942-0.433 1.4-0.244 0.453-0.603 0.889-1.08 1.308v0c-0.434 0.382-0.909 0.662-1.422 0.839-0.519 0.182-1.038 0.202-1.556 0.062-0.523-0.146-1.035-0.488-1.539-1.028v0zM219.528 238.131l6.245-5.497 1.051 1.195-6.244 5.496z" fill="#ffffff" data-fill-palette-color="primary"></path><path d="M227.625 227.684v0c-0.292 0.292-0.619 0.438-0.979 0.439-0.36 0-0.687-0.146-0.979-0.439v0c-0.292-0.292-0.436-0.616-0.431-0.972 0-0.36 0.146-0.687 0.438-0.979v0c0.292-0.292 0.616-0.436 0.972-0.431 0.356-0.005 0.68 0.139 0.972 0.431v0c0.292 0.292 0.438 0.619 0.438 0.979 0.005 0.356-0.139 0.68-0.431 0.972zM228.531 229.891l1.301-1.301 8.125 8.127-1.301 1.3z" fill="#ffffff" data-fill-palette-color="primary"></path><path d="M236.199 220.851v0c0.697-0.836 1.495-1.422 2.394-1.759 0.899-0.336 1.844-0.4 2.837-0.192 0.992 0.208 1.965 0.709 2.917 1.503v0c0.953 0.794 1.621 1.66 2.005 2.599 0.384 0.939 0.491 1.88 0.323 2.825-0.168 0.945-0.601 1.835-1.298 2.671v0c-0.688 0.826-1.484 1.409-2.387 1.751-0.903 0.341-1.851 0.408-2.843 0.2-0.992-0.208-1.965-0.709-2.918-1.503v0c-0.953-0.794-1.621-1.66-2.004-2.598-0.384-0.939-0.489-1.883-0.317-2.833 0.173-0.95 0.603-1.838 1.291-2.664zM237.414 221.863v0c-0.498 0.598-0.786 1.224-0.864 1.877-0.083 0.648 0.027 1.296 0.331 1.943 0.313 0.647 0.822 1.263 1.526 1.85v0c0.693 0.578 1.389 0.964 2.087 1.16 0.702 0.19 1.365 0.186 1.987-0.012 0.623-0.199 1.183-0.597 1.682-1.195v0c0.498-0.598 0.791-1.224 0.878-1.877 0.083-0.648-0.035-1.298-0.353-1.949-0.318-0.651-0.824-1.265-1.518-1.843v0c-0.704-0.587-1.402-0.976-2.095-1.167-0.687-0.187-1.342-0.181-1.965 0.017-0.632 0.199-1.198 0.598-1.696 1.196z" fill="#ffffff" data-fill-palette-color="primary"></path><path d="M252.966 217.89l-1.01 1.537-9.604-6.309 0.879-1.339 2.241 1.275-0.371 0.114c-0.376-0.544-0.609-1.093-0.7-1.646-0.084-0.55-0.049-1.099 0.107-1.649 0.161-0.546 0.4-1.06 0.717-1.544v0c0.454-0.691 0.999-1.232 1.635-1.622 0.63-0.394 1.327-0.583 2.091-0.567 0.759 0.012 1.553 0.29 2.382 0.835v0l6.149 4.039-1.01 1.538-5.605-3.682c-1.065-0.7-1.955-0.958-2.668-0.776-0.713 0.183-1.29 0.608-1.728 1.276v0c-0.303 0.461-0.499 0.991-0.589 1.591-0.084 0.604 0.021 1.217 0.314 1.838 0.287 0.617 0.842 1.196 1.665 1.737v0z" fill="#ffffff" data-fill-palette-color="primary"></path><path d="M250.027 192.181l4.6-11.528 1.603 0.64-1.961 4.914 12.487 4.982-0.677 1.699-12.488-4.982-1.961 4.915z" fill="#ffffff" data-fill-palette-color="primary"></path><path d="M255.787 176.825l0.547-1.757 14.485 4.512-0.547 1.756z" fill="#ffffff" data-fill-palette-color="primary"></path><path d="M3.337 141.607c0-3.563 2.888-6.451 6.451-6.452 3.563 0 6.451 2.888 6.451 6.452 0 3.563-2.888 6.451-6.451 6.451-3.563 0-6.451-2.888-6.451-6.451z" fill="#ffffff" data-fill-palette-color="primary"></path><path d="M263.761 141.607c0-3.563 2.888-6.451 6.451-6.452 3.563 0 6.451 2.888 6.451 6.452 0 3.563-2.888 6.451-6.451 6.451-3.563 0-6.451-2.888-6.451-6.451z" fill="#ffffff" data-fill-palette-color="primary"></path></g><g id="text-1"></g></svg></g></svg></g></svg></g></svg></g><defs></defs></svg><rect width="280" height="280" fill="none" stroke="none" visibility="hidden"></rect></g></svg></g></svg>