<svg width="244" height="146" viewBox="0 0 244 146" fill="none" xmlns="http://www.w3.org/2000/svg">
<g opacity="0.25" filter="url(#filter0_d_5_10)">
<path d="M102.88 16.9005C49.9267 17.3979 7.38393 44.8412 7.85751 78.1959C8.01934 89.5942 13.2454 100.195 22.1068 109.205L8.66059 134.758L46.9838 126.108C63.1101 133.533 83.0221 137.891 104.595 137.688C157.549 137.191 200.091 109.747 199.618 76.3949C199.144 43.0402 155.834 16.4032 102.88 16.9005Z" stroke="#C9C7C7" stroke-opacity="0.4" stroke-width="8"/>
</g>
<path d="M29.9172 73.5911C29.9172 74.8983 29.5702 75.8666 28.8763 76.4959C28.1824 77.1092 27.1576 77.4158 25.8021 77.4158H23.2846V84H21.1786V67.0553H25.7537C27.1254 67.0553 28.1582 67.362 28.8521 67.9752C29.5622 68.5723 29.9172 69.5244 29.9172 70.8316V73.5911ZM27.8112 70.6137C27.8112 70.0005 27.666 69.5567 27.3755 69.2824C27.1012 69.008 26.6574 68.8708 26.0441 68.8708H23.2846V75.6003H26.0441C26.6574 75.6003 27.1012 75.4631 27.3755 75.1888C27.666 74.8983 27.8112 74.4464 27.8112 73.8332V70.6137ZM43.1108 80.1269C43.1108 81.4825 42.7719 82.4669 42.0941 83.0801C41.4324 83.6934 40.3996 84 38.9956 84H38.1968C36.7928 84 35.7519 83.6934 35.0742 83.0801C34.4125 82.4669 34.0817 81.4825 34.0817 80.1269V75.7697C34.0817 74.4142 34.4125 73.4298 35.0742 72.8165C35.7519 72.2033 36.7928 71.8967 38.1968 71.8967H38.9956C40.3996 71.8967 41.4324 72.2033 42.0941 72.8165C42.7719 73.4298 43.1108 74.4142 43.1108 75.7697V80.1269ZM41.0532 75.2856C41.0532 74.7853 40.8999 74.398 40.5933 74.1237C40.2867 73.8493 39.8348 73.7122 39.2377 73.7122H37.9547C37.3577 73.7122 36.9058 73.8493 36.5992 74.1237C36.2926 74.398 36.1393 74.7853 36.1393 75.2856V80.6111C36.1393 81.1113 36.2926 81.4986 36.5992 81.773C36.9058 82.0473 37.3577 82.1845 37.9547 82.1845H39.2377C39.8348 82.1845 40.2867 82.0473 40.5933 81.773C40.8999 81.4986 41.0532 81.1113 41.0532 80.6111V75.2856ZM55.3603 80.9742C55.3603 81.9908 55.0456 82.7493 54.4162 83.2496C53.803 83.7499 52.9073 84 51.7293 84H48.1225V82.1845H51.9713C52.4071 82.1845 52.7379 82.0957 52.9638 81.9182C53.1897 81.7246 53.3027 81.4502 53.3027 81.0952V79.8123C53.3027 79.0861 52.9557 78.723 52.2618 78.723H51.3662C50.2365 78.723 49.3893 78.4809 48.8245 77.9968C48.2758 77.4965 48.0015 76.7138 48.0015 75.6487V74.9467C48.0015 73.8655 48.3081 73.0909 48.9213 72.6229C49.5345 72.1387 50.4383 71.8967 51.6324 71.8967H54.8761V73.7122H51.3904C50.9869 73.7122 50.6642 73.809 50.4221 74.0027C50.18 74.1802 50.059 74.4464 50.059 74.8015V75.6729C50.059 76.0441 50.1639 76.3184 50.3737 76.4959C50.5996 76.6735 50.882 76.7622 51.2209 76.7622H52.044C53.1252 76.7622 53.9482 77.0285 54.513 77.561C55.0779 78.0774 55.3603 78.8521 55.3603 79.8849V80.9742ZM68.4328 80.9742C68.4328 81.9908 68.1181 82.7493 67.4887 83.2496C66.8755 83.7499 65.9799 84 64.8018 84H61.195V82.1845H65.0439C65.4796 82.1845 65.8104 82.0957 66.0363 81.9182C66.2623 81.7246 66.3752 81.4502 66.3752 81.0952V79.8123C66.3752 79.0861 66.0283 78.723 65.3344 78.723H64.4387C63.3091 78.723 62.4618 78.4809 61.897 77.9968C61.3483 77.4965 61.074 76.7138 61.074 75.6487V74.9467C61.074 73.8655 61.3806 73.0909 61.9938 72.6229C62.6071 72.1387 63.5108 71.8967 64.705 71.8967H67.9487V73.7122H64.4629C64.0595 73.7122 63.7367 73.809 63.4947 74.0027C63.2526 74.1802 63.1316 74.4464 63.1316 74.8015V75.6729C63.1316 76.0441 63.2364 76.3184 63.4462 76.4959C63.6722 76.6735 63.9546 76.7622 64.2935 76.7622H65.1165C66.1977 76.7622 67.0208 77.0285 67.5856 77.561C68.1504 78.0774 68.4328 78.8521 68.4328 79.8849V80.9742ZM82.3284 80.1269C82.3284 81.4825 81.9895 82.4669 81.3117 83.0801C80.65 83.6934 79.6172 84 78.2132 84H77.4144C76.0104 84 74.9695 83.6934 74.2918 83.0801C73.6301 82.4669 73.2993 81.4825 73.2993 80.1269V75.7697C73.2993 74.4142 73.6301 73.4298 74.2918 72.8165C74.9695 72.2033 76.0104 71.8967 77.4144 71.8967H78.2132C79.6172 71.8967 80.65 72.2033 81.3117 72.8165C81.9895 73.4298 82.3284 74.4142 82.3284 75.7697V80.1269ZM80.2708 75.2856C80.2708 74.7853 80.1175 74.398 79.8109 74.1237C79.5043 73.8493 79.0524 73.7122 78.4553 73.7122H77.1723C76.5753 73.7122 76.1234 73.8493 75.8168 74.1237C75.5102 74.398 75.3569 74.7853 75.3569 75.2856V80.6111C75.3569 81.1113 75.5102 81.4986 75.8168 81.773C76.1234 82.0473 76.5753 82.1845 77.1723 82.1845H78.4553C79.0524 82.1845 79.5043 82.0473 79.8109 81.773C80.1175 81.4986 80.2708 81.1113 80.2708 80.6111V75.2856ZM107.529 84C107.32 84 107.086 83.9354 106.827 83.8063C106.585 83.6772 106.376 83.4997 106.198 83.2738C105.827 83.7579 105.335 84 104.721 84H102.567C101.341 84 100.445 83.7579 99.8801 83.2738C99.3314 82.7735 99.057 81.9263 99.057 80.7321V80.248C99.057 77.7466 100.235 76.4959 102.591 76.4959H105.593V75.2856C105.593 74.7853 105.44 74.398 105.133 74.1237C104.826 73.8493 104.374 73.7122 103.777 73.7122H100.025V71.8967H103.535C104.939 71.8967 105.972 72.2033 106.634 72.8165C107.312 73.4298 107.65 74.4142 107.65 75.7697V81.5793C107.65 81.8214 107.739 82.007 107.917 82.1361C108.11 82.2491 108.425 82.3055 108.861 82.3055V84H107.529ZM104.479 82.1845C104.963 82.1845 105.27 82.0715 105.399 81.8456C105.528 81.6197 105.593 81.3292 105.593 80.9742V78.3114H102.567C102.147 78.3114 101.8 78.4486 101.526 78.723C101.252 78.9973 101.115 79.3443 101.115 79.7638V80.9742C101.115 81.3938 101.211 81.7004 101.405 81.894C101.599 82.0877 101.905 82.1845 102.325 82.1845H104.479ZM120.239 67.0553V69.2339H117.939V67.0553H120.239ZM117.237 86.2996C117.495 86.2996 117.697 86.227 117.842 86.0818C118.004 85.9527 118.084 85.7832 118.084 85.5734V73.7122H114.526V71.8967H120.142V85.4524C120.142 86.2754 119.908 86.9209 119.44 87.3889C118.972 87.8731 118.367 88.1151 117.624 88.1151H113.824V86.2996H117.237ZM132.464 83.4432C131.932 83.8144 131.286 84 130.528 84H129.705C128.397 84 127.421 83.6934 126.776 83.0801C126.146 82.4669 125.831 81.4825 125.831 80.1269V71.8967H127.889V80.6111C127.889 81.0952 128.026 81.4825 128.301 81.773C128.591 82.0473 128.978 82.1845 129.462 82.1845H130.77C131.286 82.1845 131.665 82.0554 131.907 81.7972C132.166 81.539 132.311 81.2485 132.343 80.9258V71.8967H134.401V84H132.464V83.4432ZM145.73 83.4432C145.198 83.8144 144.552 84 143.794 84H142.801C141.381 84 140.34 83.7015 139.679 83.1044C139.017 82.4911 138.686 81.4986 138.686 80.1269V75.7697C138.686 74.4142 139.017 73.4298 139.679 72.8165C140.356 72.2033 141.397 71.8967 142.801 71.8967H145.609V67.0553H147.667V84H145.73V83.4432ZM144.036 82.1845C144.568 82.1845 144.964 82.0473 145.222 81.773C145.48 81.4825 145.609 81.1759 145.609 80.8531V73.7122H142.559C141.962 73.7122 141.51 73.8493 141.204 74.1237C140.897 74.398 140.744 74.7853 140.744 75.2856V80.6111C140.744 81.1113 140.897 81.4986 141.204 81.773C141.51 82.0473 141.962 82.1845 142.559 82.1845H144.036ZM159.82 84C159.61 84 159.376 83.9354 159.118 83.8063C158.875 83.6772 158.666 83.4997 158.488 83.2738C158.117 83.7579 157.625 84 157.012 84H154.857C153.631 84 152.735 83.7579 152.17 83.2738C151.622 82.7735 151.347 81.9263 151.347 80.7321V80.248C151.347 77.7466 152.525 76.4959 154.881 76.4959H157.883V75.2856C157.883 74.7853 157.73 74.398 157.423 74.1237C157.116 73.8493 156.665 73.7122 156.067 73.7122H152.315V71.8967H155.825C157.229 71.8967 158.262 72.2033 158.924 72.8165C159.602 73.4298 159.941 74.4142 159.941 75.7697V81.5793C159.941 81.8214 160.029 82.007 160.207 82.1361C160.4 82.2491 160.715 82.3055 161.151 82.3055V84H159.82ZM156.769 82.1845C157.254 82.1845 157.56 82.0715 157.689 81.8456C157.818 81.6197 157.883 81.3292 157.883 80.9742V78.3114H154.857C154.438 78.3114 154.091 78.4486 153.816 78.723C153.542 78.9973 153.405 79.3443 153.405 79.7638V80.9742C153.405 81.3938 153.502 81.7004 153.695 81.894C153.889 82.0877 154.196 82.1845 154.615 82.1845H156.769ZM166.986 82.1845V73.7122H165.219V71.8967H168.922V72.5503C169.455 72.1145 170.1 71.8967 170.859 71.8967H173.352V73.8332H170.617C170.1 73.8332 169.713 74.0027 169.455 74.3415C169.196 74.6643 169.059 74.9951 169.043 75.334V82.1845H171.682V84H165.219V82.1845H166.986ZM185.771 71.461C185.771 72.1387 185.739 72.6471 185.674 72.986C185.61 73.3087 185.464 73.6396 185.238 73.9784C185.012 74.3012 184.617 74.7531 184.052 75.334L182.769 76.6412V78.965H180.712V76.036L182.116 74.5594C182.632 74.0107 182.995 73.5992 183.205 73.3249C183.415 73.0505 183.552 72.8085 183.617 72.5987C183.681 72.3727 183.713 72.0661 183.713 71.6788V70.4685C183.713 69.9682 183.568 69.5809 183.278 69.3066C182.987 69.0322 182.543 68.8951 181.946 68.8951H178.92V67.0553H181.704C184.415 67.0553 185.771 68.2657 185.771 70.6863V71.461ZM182.963 81.5793V84H180.542V81.5793H182.963Z" fill="url(#paint0_linear_5_10)"/>
<defs>
<filter id="filter0_d_5_10" x="0.0827789" y="0.893677" width="218.539" height="144.801" filterUnits="userSpaceOnUse" color-interpolation-filters="sRGB">
<feFlood flood-opacity="0" result="BackgroundImageFix"/>
<feColorMatrix in="SourceAlpha" type="matrix" values="0 0 0 0 0 0 0 0 0 0 0 0 0 0 0 0 0 0 127 0" result="hardAlpha"/>
<feOffset dx="7" dy="-4"/>
<feGaussianBlur stdDeviation="4"/>
<feComposite in2="hardAlpha" operator="out"/>
<feColorMatrix type="matrix" values="0 0 0 0 0.491667 0 0 0 0 0.476507 0 0 0 0 0.476507 0 0 0 0.6 0"/>
<feBlend mode="normal" in2="BackgroundImageFix" result="effect1_dropShadow_5_10"/>
<feBlend mode="normal" in="SourceGraphic" in2="effect1_dropShadow_5_10" result="shape"/>
</filter>
<linearGradient id="paint0_linear_5_10" x1="109.303" y1="63" x2="109.303" y2="103" gradientUnits="userSpaceOnUse">
<stop stop-color="#00FFE0"/>
<stop offset="1" stop-color="#98FF14"/>
</linearGradient>
</defs>
</svg>
