<svg width="800" height="600" xmlns="http://www.w3.org/2000/svg">
 <g id="Layer_1">
  <title>Layer 1</title>
  <path id="svg_6" d="m857.45232,182.27941c-0.38798,0 -0.7025,0.2359 -0.7025,0.52689c0,0.09944 0.03718,0.19234 0.10116,0.27166l-0.10116,0.2218l0.28165,-0.07232c0.11737,0.06609 0.26279,0.10574 0.42085,0.10574c0.38798,0 0.7025,-0.2359 0.7025,-0.52688c0,-0.29099 -0.31452,-0.52689 -0.7025,-0.52689l0,0z" stroke="#000" fill="#fff"/>
  <path id="svg_16" d="m143.10344,246.03447" opacity="NaN" stroke="#000" fill="#fff"/>
  <path fill="#000000" stroke="#000" d="m843.52232,194.21941c-0.38798,0 -0.7025,0.2359 -0.7025,0.52689c0,0.09944 0.03718,0.19234 0.10116,0.27166l-0.10116,0.2218l0.28165,-0.07232c0.11737,0.06609 0.26279,0.10574 0.42085,0.10574c0.38798,0 0.7025,-0.2359 0.7025,-0.52688c0,-0.29099 -0.31452,-0.52689 -0.7025,-0.52689l0,0z" id="svg_1"/>
  <path fill="#000000" stroke="#000000" d="m817.65232,168.34941c-0.38798,0 -0.7025,0.2359 -0.7025,0.52689c0,0.09944 0.03718,0.19234 0.10116,0.27166l-0.10116,0.2218l0.28165,-0.07232c0.11737,0.06609 0.26279,0.10574 0.42085,0.10574c0.38798,0 0.7025,-0.2359 0.7025,-0.52688c0,-0.29099 -0.31452,-0.52689 -0.7025,-0.52689l0,0z" id="svg_2"/>
  <path fill="#000000" stroke="#000000" d="m722.52598,210.95296z" id="svg_4"/>
  <path transform="rotate(-0.66161 422.333 313.938)" stroke="#666666" opacity="0.25" stroke-width="8" id="svg_8" d="m422.33258,26.32939c-203.68118,0 -368.79519,128.77127 -368.79519,287.61371c0,54.28107 19.51993,104.99001 53.1083,148.28977l-53.1083,121.07111l147.85975,-39.47585c61.61487,36.07901 137.9563,57.7188 220.93544,57.7188c203.68139,0 368.7953,-128.7714 368.7953,-287.60385c0,-158.84241 -165.11388,-287.61371 -368.7953,-287.61371l0,0.00003z" fill="none"/>
  <text stroke="#999999" transform="matrix(4.27621 0 0 5.09597 -1844.21 -955.256)" xml:space="preserve" text-anchor="start" font-family="'Noto Sans Mono'" font-size="24" id="svg_9" y="253.37707" x="454.56278" stroke-width="0" fill="url(#svg_11)">Posso ajudar?</text>
 </g>
 <defs>
  <linearGradient y2="1" x2="1" y1="0" x1="0" id="svg_11">
   <stop offset="0" stop-opacity="0.99609" stop-color="#ffffff"/>
   <stop offset="0" stop-opacity="0.99219" stop-color="#000000"/>
   <stop offset="0" stop-opacity="0.98828" stop-color="#00e9ff"/>
   <stop offset="1" stop-opacity="0.98828" stop-color="#bfff00"/>
   <stop offset="NaN" stop-opacity="0" stop-color="0"/>
  </linearGradient>
 </defs>
</svg>