<svg width="237" height="158" viewBox="0 0 237 158" fill="none" xmlns="http://www.w3.org/2000/svg">
<g opacity="0.25" filter="url(#filter0_d_2_37)">
<path d="M111.734 17.9743C54.4428 18.5124 8.41537 48.2035 8.92774 84.2903C9.10283 96.6222 14.7569 108.091 24.3442 117.839L9.79661 145.485L51.2588 136.126C68.706 144.16 90.2489 148.875 113.589 148.655C170.88 148.117 216.907 118.426 216.395 82.3417C215.883 46.255 169.024 17.4362 111.734 17.9743Z" stroke="#868686" stroke-opacity="0.4" stroke-width="8.65526" shape-rendering="crispEdges"/>
</g>
<path d="M27.6699 80.92C27.6699 82.437 27.2673 83.5608 26.4619 84.2912C25.6566 85.0029 24.4673 85.3587 22.8941 85.3587H19.9725V93H17.5284V73.3349H22.8379C24.4299 73.3349 25.6285 73.6907 26.4339 74.4024C27.2579 75.0954 27.6699 76.2004 27.6699 77.7174V80.92ZM25.2259 77.4646C25.2259 76.7529 25.0573 76.2378 24.7202 75.9195C24.4018 75.6011 23.8868 75.4419 23.1751 75.4419H19.9725V83.2517H23.1751C23.8868 83.2517 24.4018 83.0925 24.7202 82.7741C25.0573 82.437 25.2259 81.9126 25.2259 81.2009V77.4646ZM42.9817 88.5051C42.9817 90.0783 42.5884 91.2208 41.8018 91.9325C41.0339 92.6442 39.8353 93 38.2059 93H37.2788C35.6495 93 34.4415 92.6442 33.6549 91.9325C32.887 91.2208 32.503 90.0783 32.503 88.5051V83.4484C32.503 81.8752 32.887 80.7327 33.6549 80.021C34.4415 79.3093 35.6495 78.9535 37.2788 78.9535H38.2059C39.8353 78.9535 41.0339 79.3093 41.8018 80.021C42.5884 80.7327 42.9817 81.8752 42.9817 83.4484V88.5051ZM40.5938 82.8865C40.5938 82.3059 40.4159 81.8564 40.0601 81.5381C39.7042 81.2197 39.1798 81.0605 38.4868 81.0605H36.9979C36.305 81.0605 35.7806 81.2197 35.4247 81.5381C35.0689 81.8564 34.8909 82.3059 34.8909 82.8865V89.067C34.8909 89.6476 35.0689 90.0971 35.4247 90.4154C35.7806 90.7338 36.305 90.893 36.9979 90.893H38.4868C39.1798 90.893 39.7042 90.7338 40.0601 90.4154C40.4159 90.0971 40.5938 89.6476 40.5938 89.067V82.8865ZM57.1979 89.4884C57.1979 90.6683 56.8327 91.5485 56.1023 92.1291C55.3906 92.7097 54.3511 93 52.9839 93H48.7981V90.893H53.2649C53.7705 90.893 54.1545 90.79 54.4167 90.584C54.6789 90.3593 54.81 90.0409 54.81 89.6288V88.1399C54.81 87.2971 54.4073 86.8757 53.602 86.8757H52.5625C51.2515 86.8757 50.2683 86.5948 49.6128 86.0329C48.976 85.4523 48.6576 84.544 48.6576 83.3079V82.4932C48.6576 81.2384 49.0135 80.3394 49.7251 79.7963C50.4368 79.2344 51.4856 78.9535 52.8716 78.9535H56.636V81.0605H52.5906C52.1224 81.0605 51.7478 81.1728 51.4669 81.3976C51.186 81.6036 51.0455 81.9126 51.0455 82.3247V83.336C51.0455 83.7668 51.1673 84.0852 51.4107 84.2912C51.6729 84.4972 52.0007 84.6002 52.394 84.6002H53.3491C54.604 84.6002 55.5591 84.9092 56.2146 85.5273C56.8701 86.1266 57.1979 87.0256 57.1979 88.2242V89.4884ZM72.3692 89.4884C72.3692 90.6683 72.004 91.5485 71.2736 92.1291C70.5619 92.7097 69.5224 93 68.1553 93H63.9694V90.893H68.4362C68.9419 90.893 69.3258 90.79 69.588 90.584C69.8502 90.3593 69.9813 90.0409 69.9813 89.6288V88.1399C69.9813 87.2971 69.5786 86.8757 68.7733 86.8757H67.7339C66.4229 86.8757 65.4396 86.5948 64.7841 86.0329C64.1473 85.4523 63.8289 84.544 63.8289 83.3079V82.4932C63.8289 81.2384 64.1848 80.3394 64.8965 79.7963C65.6082 79.2344 66.657 78.9535 68.0429 78.9535H71.8073V81.0605H67.762C67.2937 81.0605 66.9192 81.1728 66.6382 81.3976C66.3573 81.6036 66.2168 81.9126 66.2168 82.3247V83.336C66.2168 83.7668 66.3386 84.0852 66.582 84.2912C66.8442 84.4972 67.172 84.6002 67.5653 84.6002H68.5205C69.7753 84.6002 70.7304 84.9092 71.386 85.5273C72.0415 86.1266 72.3692 87.0256 72.3692 88.2242V89.4884ZM88.4957 88.5051C88.4957 90.0783 88.1024 91.2208 87.3158 91.9325C86.5479 92.6442 85.3493 93 83.7199 93H82.7928C81.1634 93 79.9554 92.6442 79.1688 91.9325C78.4009 91.2208 78.017 90.0783 78.017 88.5051V83.4484C78.017 81.8752 78.4009 80.7327 79.1688 80.021C79.9554 79.3093 81.1634 78.9535 82.7928 78.9535H83.7199C85.3493 78.9535 86.5479 79.3093 87.3158 80.021C88.1024 80.7327 88.4957 81.8752 88.4957 83.4484V88.5051ZM86.1078 82.8865C86.1078 82.3059 85.9299 81.8564 85.574 81.5381C85.2182 81.2197 84.6938 81.0605 84.0008 81.0605H82.5119C81.8189 81.0605 81.2945 81.2197 80.9387 81.5381C80.5828 81.8564 80.4049 82.3059 80.4049 82.8865V89.067C80.4049 89.6476 80.5828 90.0971 80.9387 90.4154C81.2945 90.7338 81.8189 90.893 82.5119 90.893H84.0008C84.6938 90.893 85.2182 90.7338 85.574 90.4154C85.9299 90.0971 86.1078 89.6476 86.1078 89.067V82.8865ZM117.743 93C117.499 93 117.228 92.9251 116.928 92.7753C116.647 92.6254 116.404 92.4194 116.198 92.1572C115.767 92.7191 115.196 93 114.484 93H111.984C110.56 93 109.521 92.7191 108.865 92.1572C108.229 91.5766 107.91 90.5934 107.91 89.2074V88.6456C107.91 85.7426 109.277 84.2912 112.012 84.2912H115.495V82.8865C115.495 82.3059 115.317 81.8564 114.961 81.5381C114.606 81.2197 114.081 81.0605 113.388 81.0605H109.034V78.9535H113.107C114.737 78.9535 115.935 79.3093 116.703 80.021C117.49 80.7327 117.883 81.8752 117.883 83.4484V90.1907C117.883 90.4716 117.986 90.687 118.192 90.8368C118.417 90.9679 118.782 91.0335 119.288 91.0335V93H117.743ZM114.203 90.893C114.765 90.893 115.121 90.7619 115.271 90.4997C115.42 90.2375 115.495 89.9004 115.495 89.4884V86.3981H111.984C111.497 86.3981 111.094 86.5573 110.776 86.8757C110.457 87.1941 110.298 87.5968 110.298 88.0837V89.4884C110.298 89.9753 110.41 90.3312 110.635 90.5559C110.86 90.7807 111.216 90.893 111.703 90.893H114.203ZM132.493 73.3349V75.8633H129.824V73.3349H132.493ZM129.009 95.6688C129.309 95.6688 129.543 95.5846 129.711 95.416C129.899 95.2662 129.992 95.0695 129.992 94.826V81.0605H125.863V78.9535H132.38V94.6856C132.38 95.6407 132.109 96.3899 131.566 96.933C131.022 97.4949 130.32 97.7758 129.459 97.7758H125.048V95.6688H129.009ZM146.681 92.3539C146.063 92.7846 145.313 93 144.433 93H143.478C141.961 93 140.828 92.6442 140.079 91.9325C139.348 91.2208 138.983 90.0783 138.983 88.5051V78.9535H141.371V89.067C141.371 89.6288 141.53 90.0783 141.849 90.4154C142.186 90.7338 142.635 90.893 143.197 90.893H144.714C145.313 90.893 145.754 90.7432 146.035 90.4435C146.334 90.1439 146.503 89.8068 146.54 89.4322V78.9535H148.928V93H146.681V92.3539ZM162.077 92.3539C161.459 92.7846 160.71 93 159.829 93H158.677C157.029 93 155.821 92.6535 155.053 91.9606C154.286 91.2489 153.902 90.0971 153.902 88.5051V83.4484C153.902 81.8752 154.286 80.7327 155.053 80.021C155.84 79.3093 157.048 78.9535 158.677 78.9535H161.936V73.3349H164.324V93H162.077V92.3539ZM160.11 90.893C160.728 90.893 161.187 90.7338 161.487 90.4154C161.786 90.0783 161.936 89.7225 161.936 89.3479V81.0605H158.397C157.704 81.0605 157.179 81.2197 156.823 81.5381C156.468 81.8564 156.29 82.3059 156.29 82.8865V89.067C156.29 89.6476 156.468 90.0971 156.823 90.4154C157.179 90.7338 157.704 90.893 158.397 90.893H160.11ZM178.428 93C178.185 93 177.913 92.9251 177.613 92.7753C177.332 92.6254 177.089 92.4194 176.883 92.1572C176.452 92.7191 175.881 93 175.169 93H172.669C171.246 93 170.206 92.7191 169.551 92.1572C168.914 91.5766 168.595 90.5934 168.595 89.2074V88.6456C168.595 85.7426 169.963 84.2912 172.697 84.2912H176.181V82.8865C176.181 82.3059 176.003 81.8564 175.647 81.5381C175.291 81.2197 174.767 81.0605 174.074 81.0605H169.719V78.9535H173.793C175.422 78.9535 176.621 79.3093 177.389 80.021C178.175 80.7327 178.568 81.8752 178.568 83.4484V90.1907C178.568 90.4716 178.671 90.687 178.877 90.8368C179.102 90.9679 179.467 91.0335 179.973 91.0335V93H178.428ZM174.888 90.893C175.45 90.893 175.806 90.7619 175.956 90.4997C176.106 90.2375 176.181 89.9004 176.181 89.4884V86.3981H172.669C172.182 86.3981 171.779 86.5573 171.461 86.8757C171.143 87.1941 170.983 87.5968 170.983 88.0837V89.4884C170.983 89.9753 171.096 90.3312 171.32 90.5559C171.545 90.7807 171.901 90.893 172.388 90.893H174.888ZM186.745 90.893V81.0605H184.694V78.9535H188.992V79.712C189.61 79.2063 190.359 78.9535 191.239 78.9535H194.133V81.2009H190.959C190.359 81.2009 189.91 81.3976 189.61 81.7909C189.31 82.1655 189.151 82.5494 189.133 82.9427V90.893H192.195V93H184.694V90.893H186.745ZM208.546 78.4478C208.546 79.2344 208.508 79.8244 208.433 80.2177C208.359 80.5923 208.19 80.9762 207.928 81.3695C207.666 81.7441 207.207 82.2685 206.551 82.9427L205.062 84.4597V87.1567H202.674V83.7574L204.304 82.0437C204.903 81.407 205.325 80.9294 205.568 80.611C205.811 80.2926 205.971 80.0117 206.046 79.7682C206.121 79.506 206.158 79.1501 206.158 78.7007V77.296C206.158 76.7154 205.989 76.2659 205.652 75.9475C205.315 75.6292 204.8 75.47 204.107 75.47H200.596V73.3349H203.826C206.973 73.3349 208.546 74.7395 208.546 77.5488V78.4478ZM205.287 90.1907V93H202.478V90.1907H205.287Z" fill="url(#paint0_linear_2_37)"/>
<defs>
<filter id="filter0_d_2_37" x="0.502382" y="0.656576" width="236.453" height="156.661" filterUnits="userSpaceOnUse" color-interpolation-filters="sRGB">
<feFlood flood-opacity="0" result="BackgroundImageFix"/>
<feColorMatrix in="SourceAlpha" type="matrix" values="0 0 0 0 0 0 0 0 0 0 0 0 0 0 0 0 0 0 127 0" result="hardAlpha"/>
<feOffset dx="7.57336" dy="-4.32763"/>
<feGaussianBlur stdDeviation="4.32763"/>
<feComposite in2="hardAlpha" operator="out"/>
<feColorMatrix type="matrix" values="0 0 0 0 0.491667 0 0 0 0 0.476507 0 0 0 0 0.476507 0 0 0 0.6 0"/>
<feBlend mode="normal" in2="BackgroundImageFix" result="effect1_dropShadow_2_37"/>
<feBlend mode="normal" in="SourceGraphic" in2="effect1_dropShadow_2_37" result="shape"/>
</filter>
<linearGradient id="paint0_linear_2_37" x1="129" y1="72" x2="92.1373" y2="125.071" gradientUnits="userSpaceOnUse">
<stop stop-color="#04E000"/>
<stop offset="1" stop-color="#0CC1FA"/>
</linearGradient>
</defs>
</svg>
