<svg width="834" height="1194" viewBox="0 0 834 1194" fill="none" xmlns="http://www.w3.org/2000/svg">
<rect width="834" height="1194" fill="#F5F5F5"/>
<g clip-path="url(#clip0_0_1)">
<rect width="834" height="1194" fill="white"/>
<g filter="url(#filter0_d_0_1)">
<path d="M18.496 57C14.784 57 11.9253 56.104 9.92 54.312C7.95733 52.4773 6.976 49.7467 6.976 46.12V23.08C6.976 19.4533 7.95733 16.744 9.92 14.952C11.9253 13.1173 14.784 12.2 18.496 12.2H27.584V17.064H17.856C16.2773 17.064 14.9973 17.5333 14.016 18.472C13.0347 19.4107 12.544 20.5413 12.544 21.864V47.336C12.544 48.6587 13.0347 49.7893 14.016 50.728C14.9973 51.6667 16.2773 52.136 17.856 52.136H27.584V57H18.496ZM61.2505 57C60.6958 57 60.0772 56.8293 59.3945 56.488C58.7545 56.1467 58.1998 55.6773 57.7305 55.08C56.7492 56.36 55.4478 57 53.8265 57H48.1305C44.8878 57 42.5198 56.36 41.0265 55.08C39.5758 53.7573 38.8505 51.5173 38.8505 48.36V47.08C38.8505 40.4667 41.9652 37.16 48.1945 37.16H56.1305V33.96C56.1305 32.6373 55.7252 31.6133 54.9145 30.888C54.1038 30.1627 52.9092 29.8 51.3305 29.8H41.4105V25H50.6905C54.4025 25 57.1332 25.8107 58.8825 27.432C60.6745 29.0533 61.5705 31.656 61.5705 35.24V50.6C61.5705 51.24 61.8052 51.7307 62.2745 52.072C62.7865 52.3707 63.6185 52.52 64.7705 52.52V57H61.2505ZM53.1865 52.2C54.4665 52.2 55.2772 51.9013 55.6185 51.304C55.9598 50.7067 56.1305 49.9387 56.1305 49V41.96H48.1305C47.0212 41.96 46.1038 42.3227 45.3785 43.048C44.6532 43.7733 44.2905 44.6907 44.2905 45.8V49C44.2905 50.1093 44.5465 50.92 45.0585 51.432C45.5705 51.944 46.3812 52.2 47.4905 52.2H53.1865ZM89.413 12.2V17.96H83.333V12.2H89.413ZM74.245 29.8V25H89.093V52.2H98.565V57H83.653V29.8H74.245ZM132.872 46.76C132.872 50.344 131.976 52.9467 130.184 54.568C128.434 56.1893 125.704 57 121.992 57H119.88C116.168 57 113.416 56.1893 111.624 54.568C109.874 52.9467 109 50.344 109 46.76V35.24C109 31.656 109.874 29.0533 111.624 27.432C113.416 25.8107 116.168 25 119.88 25H121.992C125.704 25 128.434 25.8107 130.184 27.432C131.976 29.0533 132.872 31.656 132.872 35.24V46.76ZM127.432 33.96C127.432 32.6373 127.026 31.6133 126.216 30.888C125.405 30.1627 124.21 29.8 122.632 29.8H119.24C117.661 29.8 116.466 30.1627 115.656 30.888C114.845 31.6133 114.44 32.6373 114.44 33.96V48.04C114.44 49.3627 114.845 50.3867 115.656 51.112C116.466 51.8373 117.661 52.2 119.24 52.2H122.632C124.21 52.2 125.405 51.8373 126.216 51.112C127.026 50.3867 127.432 49.3627 127.432 48.04V33.96ZM182.861 38.44V57H177.293V12.2H189.325C192.951 12.2 195.682 13.0107 197.517 14.632C199.394 16.2107 200.333 18.728 200.333 22.184V28.328C200.333 33.1493 198.413 36.1573 194.573 37.352L203.469 57H197.389L189.133 38.44H182.861ZM194.765 21.608C194.765 19.9867 194.381 18.8133 193.613 18.088C192.887 17.3627 191.714 17 190.093 17H182.861V33.64H190.093C191.714 33.64 192.887 33.2773 193.613 32.552C194.381 31.784 194.765 30.5893 194.765 28.968V21.608ZM236.559 46.76C236.559 50.344 235.663 52.9467 233.871 54.568C232.122 56.1893 229.391 57 225.679 57H223.567C219.855 57 217.103 56.1893 215.311 54.568C213.562 52.9467 212.687 50.344 212.687 46.76V35.24C212.687 31.656 213.562 29.0533 215.311 27.432C217.103 25.8107 219.855 25 223.567 25H225.679C229.391 25 232.122 25.8107 233.871 27.432C235.663 29.0533 236.559 31.656 236.559 35.24V46.76ZM231.119 33.96C231.119 32.6373 230.714 31.6133 229.903 30.888C229.092 30.1627 227.898 29.8 226.319 29.8H222.927C221.348 29.8 220.154 30.1627 219.343 30.888C218.532 31.6133 218.127 32.6373 218.127 33.96V48.04C218.127 49.3627 218.532 50.3867 219.343 51.112C220.154 51.8373 221.348 52.2 222.927 52.2H226.319C227.898 52.2 229.092 51.8373 229.903 51.112C230.714 50.3867 231.119 49.3627 231.119 48.04V33.96ZM265.938 55.528C264.53 56.5093 262.823 57 260.818 57H258.194C254.439 57 251.687 56.2107 249.938 54.632C248.188 53.0107 247.314 50.3867 247.314 46.76V35.24C247.314 31.656 248.188 29.0533 249.938 27.432C251.73 25.8107 254.482 25 258.194 25H265.618V12.2H271.058V57H265.938V55.528ZM261.458 52.2C262.866 52.2 263.911 51.8373 264.594 51.112C265.276 50.344 265.618 49.5333 265.618 48.68V29.8H257.554C255.975 29.8 254.78 30.1627 253.97 30.888C253.159 31.6133 252.754 32.6373 252.754 33.96V48.04C252.754 49.3627 253.159 50.3867 253.97 51.112C254.78 51.8373 255.975 52.2 257.554 52.2H261.458ZM287.572 52.2V29.8H282.9V25H292.692V26.728C294.1 25.576 295.807 25 297.812 25H304.404V30.12H297.172C295.807 30.12 294.783 30.568 294.1 31.464C293.417 32.3173 293.055 33.192 293.012 34.088V52.2H299.988V57H282.9V52.2H287.572ZM331.351 12.2V17.96H325.271V12.2H331.351ZM316.183 29.8V25H331.031V52.2H340.503V57H325.591V29.8H316.183ZM375.513 59.24C375.513 62.1413 374.638 64.296 372.889 65.704C371.182 67.1547 368.494 67.88 364.825 67.88H351.513V63.08H365.465C367.001 63.08 368.153 62.7813 368.921 62.184C369.689 61.5867 370.073 60.8187 370.073 59.88V57.832C370.073 56.8507 369.689 56.0827 368.921 55.528C368.153 54.9307 367.001 54.632 365.465 54.632H354.393V45.8C352.985 45.032 351.94 43.9227 351.257 42.472C350.574 41.0213 350.233 39.144 350.233 36.84V35.24C350.233 31.656 351.108 29.0533 352.857 27.432C354.649 25.8107 357.401 25 361.113 25H374.553V36.84C374.553 40.04 373.678 42.5573 371.929 44.392C370.18 46.184 367.854 47.08 364.953 47.08H359.833V49.832H364.825C368.494 49.832 371.182 50.5573 372.889 52.008C374.638 53.416 375.513 55.5707 375.513 58.472V59.24ZM364.953 42.28C366.276 42.28 367.278 41.8533 367.961 41C368.644 40.1467 369.028 39.2507 369.113 38.312V29.8H360.473C358.894 29.8 357.7 30.1627 356.889 30.888C356.078 31.6133 355.673 32.6373 355.673 33.96V38.12C355.673 39.4427 356.078 40.4667 356.889 41.192C357.7 41.9173 358.894 42.28 360.473 42.28H364.953ZM403.676 55.528C402.268 56.5093 400.561 57 398.556 57H396.38C392.924 57 390.342 56.1893 388.635 54.568C386.972 52.9467 386.14 50.344 386.14 46.76V25H391.58V48.04C391.58 49.32 391.942 50.344 392.668 51.112C393.436 51.8373 394.46 52.2 395.74 52.2H399.196C400.561 52.2 401.564 51.8587 402.204 51.176C402.886 50.4933 403.27 49.7253 403.356 48.872V25H408.796V57H403.676V55.528ZM431.646 57C427.891 57 425.139 56.2107 423.39 54.632C421.641 53.0107 420.766 50.3867 420.766 46.76V35.24C420.766 31.5707 421.555 28.9467 423.134 27.368C424.713 25.7893 427.337 25 431.006 25H434.014C437.043 25 439.326 25.8533 440.862 27.56C442.441 29.224 443.23 31.6773 443.23 34.92V43.24H426.206V48.04C426.206 49.3627 426.611 50.3867 427.422 51.112C428.233 51.8373 429.427 52.2 431.006 52.2H441.182V57H431.646ZM437.918 33.64C437.918 32.5307 437.555 31.6133 436.83 30.888C436.105 30.1627 435.187 29.8 434.078 29.8H430.366C428.83 29.8 427.742 30.1627 427.102 30.888C426.505 31.5707 426.206 32.5947 426.206 33.96V38.44H437.918V33.64ZM476.321 49C476.321 51.688 475.489 53.6933 473.825 55.016C472.203 56.3387 469.835 57 466.721 57H457.185V52.2H467.361C468.513 52.2 469.387 51.9653 469.985 51.496C470.582 50.984 470.881 50.2587 470.881 49.32V45.928C470.881 44.008 469.963 43.048 468.128 43.048H465.76C462.774 43.048 460.534 42.408 459.041 41.128C457.59 39.8053 456.865 37.736 456.865 34.92V33.064C456.865 30.2053 457.675 28.1573 459.297 26.92C460.918 25.64 463.307 25 466.465 25H475.041V29.8H465.825C464.758 29.8 463.905 30.056 463.265 30.568C462.625 31.0373 462.305 31.7413 462.305 32.68V34.984C462.305 35.9653 462.582 36.6907 463.137 37.16C463.734 37.6293 464.481 37.864 465.377 37.864H467.553C470.411 37.864 472.587 38.568 474.081 39.976C475.574 41.3413 476.321 43.3893 476.321 46.12V49Z" fill="url(#paint0_linear_0_1)"/>
</g>
</g>
<defs>
<filter id="filter0_d_0_1" x="-8.02399" y="-1.79999" width="509.344" height="95.68" filterUnits="userSpaceOnUse" color-interpolation-filters="sRGB">
<feFlood flood-opacity="0" result="BackgroundImageFix"/>
<feColorMatrix in="SourceAlpha" type="matrix" values="0 0 0 0 0 0 0 0 0 0 0 0 0 0 0 0 0 0 127 0" result="hardAlpha"/>
<feOffset dx="5" dy="6"/>
<feGaussianBlur stdDeviation="10"/>
<feComposite in2="hardAlpha" operator="out"/>
<feColorMatrix type="matrix" values="0 0 0 0 0 0 0 0 0 0 0 0 0 0 0 0 0 0 0.25 0"/>
<feBlend mode="normal" in2="BackgroundImageFix" result="effect1_dropShadow_0_1"/>
<feBlend mode="normal" in="SourceGraphic" in2="effect1_dropShadow_0_1" result="shape"/>
</filter>
<linearGradient id="paint0_linear_0_1" x1="411.5" y1="-2.13281e-07" x2="411" y2="62" gradientUnits="userSpaceOnUse">
<stop stop-color="#52FF00"/>
<stop offset="1" stop-color="#00FFE0"/>
</linearGradient>
<clipPath id="clip0_0_1">
<rect width="834" height="1194" fill="white"/>
</clipPath>
</defs>
</svg>
